<?xml version="1.0" encoding="utf-8"?>
<!-- Generator: Adobe Illustrator 25.2.0, SVG Export Plug-In . SVG Version: 6.00 Build 0)  -->
<svg version="1.1" id="Layer_1" xmlns="http://www.w3.org/2000/svg" xmlns:xlink="http://www.w3.org/1999/xlink" x="0px" y="0px"
	 viewBox="0 0 492 480" style="enable-background:new 0 0 492 480;" xml:space="preserve">
<style type="text/css">
	.st0{fill:#415162;}
	.st1{fill:#000000;}
	.st2{fill:#526272;}
	.st3{opacity:0.998;fill:#000000;enable-background:new    ;}
	.st4{fill:#222B3A;}
	.st5{fill:none;}
	.st6{fill:#2B3749;}
	.st7{opacity:0.42;fill:#E8E6E5;enable-background:new    ;}
	.st8{fill:#E3E0DC;}
	.st9{opacity:0.42;fill:#C7C4C1;enable-background:new    ;}
	.st10{fill:#BA5A5A;}
	.st11{opacity:0.46;fill:#E5E3E1;enable-background:new    ;}
	.st12{fill:#9A4A4A;}
	.st13{opacity:0.67;fill:#E5E3E1;enable-background:new    ;}
	.st14{fill:#FFA200;}
	.st15{fill:#F38800;}
	.st16{fill:#5C6C7C;}
	.st17{fill:#808F9F;}
	.st18{opacity:0.314;fill:#415162;enable-background:new    ;}
</style>
<g>
	<g id="Layer_2_1_">
		<g id="Layer_2-2">
			<path class="st0" d="M30,109.9h345.6c8.3,0,15,6.7,15,15v274.7l0,0H15l0,0V124.9C15,116.6,21.7,109.9,30,109.9z"/>
			<path id="Path_3060" class="st1" d="M403,391.4c6.8-0.4,33-2.8,47-19.3c5.9-7,16.5-23.7,10.2-34.1c-3.1-5.1-9.1-6.7-10.8-7.1
				c-10.7-2.8-20.4,4.5-27.2,9.2c-5.1,3.6-13.9,11.7-17.4,16.8L403,391.4z"/>
			<path class="st2" d="M441.2,347.9c-4,3.2-7.6,6.9-11.4,10.3c-4.2,3.7-8.7,7.1-13.4,10.3c-3.8,2.6-7.7,5.1-11.8,7.2
				c-1,0.5-2.1,1-3.1,1.5c-1,0.5-2.1,1-3.1,1.4c-2.2,0.8-4.5,1.1-6.8,0.9c-0.5,0-0.7,0.4-0.3,0.6c2.1,0.6,4.3,0.7,6.4,0.2
				c1.2-0.2,2.3-0.6,3.4-1.1c1-0.5,2.1-1,3.1-1.5c4-2.1,7.8-4.4,11.6-7c9.6-6.1,18.8-13.2,26.1-22
				C442.4,348.1,442,347.3,441.2,347.9z"/>
			<path class="st1" d="M425.3,323.9l0.6,0.2c0,0-0.1,0.1-0.1,0.1c-1.1,0.6-20.3-12.7-16.4-45.2c0,0,1.4-17.4,11.6-25.1
				c2-1.5,4.5-1.1,6.8,0c3.1,1.4,5.6,4.4,7.4,8.3c-9.3,15.5-11.5,28.7-11.6,28.9c-1.6,10.4-1.2,21,1.2,31.2L425.3,323.9z"/>
			<path class="st1" d="M428.9,321.9c-0.4-0.1-0.7-0.2-1.1-0.3c-2.3-9.8-2.7-20-1.2-30c0.4-2.6,2.9-13.4,10-25.9
				C442.4,282.6,439.4,311.7,428.9,321.9z"/>
			<path id="Path_3057" class="st1" d="M427.8,321.6c-2.3-9.8-2.7-20-1.2-30c0.6-3.6,5.2-23,20.6-40.9c14.9-17.2,32-18.3,37.1-15.1
				c7.1,4.4,11.3,26.4-2.1,48.2c-2.8,4.5-5.1,8.2-6.9,10.6c1.8-1.1,4.1-1.3,6.1-0.5c3,1.3,4.4,5.3,1.5,8.9
				C471.6,317.2,447.8,327.7,427.8,321.6z"/>
			<path class="st2" d="M392,348.5c4.7-2.7,9.3-5.6,13.8-8.7c4.5-3.1,8.9-6.3,13.1-9.7s8.4-6.9,12.2-10.7c3.9-3.8,7.6-7.8,11-12
				c6.2-7.6,11.7-15.6,16.7-24c5-8.5,9.1-17.3,11.5-25.8c0.1-0.3-0.1-0.2-0.3,0c-4.2,9.4-9,18.5-14.4,27.3
				c-2.7,4.4-5.5,8.7-8.6,12.9c-1.5,2.1-3.1,4.1-4.7,6.2c-0.8,1-1.6,2-2.5,3s-1.6,2-2.5,2.9c-3.7,4.1-7.7,8-11.9,11.7
				c-4.2,3.7-8.5,7.1-13,10.4c-4.6,3.4-9.4,6.6-14.3,9.7c-3,1.9-6.1,3.5-8.5,5.6C387.7,349,389.4,349.9,392,348.5z"/>
			<path id="Path_3059" class="st3" d="M439.3,242c-0.6,0.1-1.2,0-1.8-0.2c-1.2-0.4-2.7-1.6-3.5-5.1c-0.6-2.8-0.3-5.7,1-8.3
				c1.3-2.6,3.7-4.4,6.5-5.1c1.9-0.6,3.9,0.1,5,1.7c1.5,2.1,2,4.7,1.6,7.2c-0.3,1.5-1.1,5.2-3.4,7.1
				C443.2,240.7,441.3,241.6,439.3,242z"/>
			<g id="Group_14421">
				<path id="Path_37306" class="st1" d="M222.1,174.4C222.1,174.4,222.1,174.4,222.1,174.4c-1-0.2-1.9-0.1-2.9-0.2
					c-0.8-0.1-1.6-0.1-2.4,0c-1.5,0.1-3,0.3-4.5,0.5c-1.1,0.3-2.2,0.4-3.3,0.5c-0.5,0-1-0.1-1.4-0.2c-0.4-0.2-0.8-0.5-1.2-0.8
					c-0.5-0.5-0.9-1-1.5-1.4c-0.3-0.3-0.7-0.4-1.1-0.6c-0.4-0.1-0.8-0.2-1.3-0.1c-0.9,0.1-1.7,0.5-2.4,1.1c-0.6,0.5-1.2,0.9-1.9,1.3
					c-0.8,0.5-1.8,0.9-2.7,1.1c-1.5,0.4-3,0.4-4.6,0.2c-0.5,0-1-0.1-1.4-0.3c-0.4-0.2-0.9-0.4-1.3-0.6c-0.3-0.1-0.6-0.2-0.8-0.4
					c-0.2-0.2-0.5-0.3-0.7-0.5c-0.2-0.2-0.5-0.4-0.8-0.7s-0.5-0.4-0.7-0.7c-0.2-0.2-0.4-0.3-0.5-0.2c-0.3,0-0.2,0.5,0.2,1
					c0.2,0.2,0.3,0.3,0.4,0.5c-0.2-0.1-0.4-0.2-0.6-0.4c-0.3-0.2-0.6-0.5-0.7-0.4c-0.2,0.1-0.1,0.3,0,0.6c0.1,0.2,0.3,0.4,0.4,0.5
					c0.3,0.2,0.5,0.5,0.8,0.8c0.2,0.2,0.4,0.4,0.6,0.5c0.4,0.2,0.8,0.5,1.2,0.7c0.4,0.2,0.8,0.4,1.3,0.6l0.7,0.3l0.7,0.2l0.4,0.1
					l0.4,0.1l0.7,0.1c0.5,0,1,0.1,1.5,0.1l0.8,0l0.8-0.1c1.2-0.1,2.3-0.4,3.4-0.9c1.1-0.5,2.2-1.1,3.1-1.9c0.4-0.3,0.9-0.5,1.2-0.8
					c0.4-0.1,0.8-0.1,1.1-0.1c0.4,0,0.7,0.2,1,0.5c0.5,0.5,1,1.1,1.6,1.5c0.4,0.3,0.7,0.5,1.2,0.7c0.4,0.2,0.8,0.3,1.3,0.4
					c1.2,0.1,2.3,0,3.5-0.2c1-0.2,1.9-0.4,2.9-0.5l0.7-0.1l0.7-0.1c0.5,0,1,0,1.5,0c1.8,0,3.6,0.1,5.4,0.3l5.7,0.7
					c1.7,0.2,3.4,0.3,5.1,0.4c1.7,0,3.4,0,5.1-0.2c2.2-0.2,4.4-0.6,6.5-0.9c1.7-0.3,3.3-0.7,5-1.1c1-0.2,1.9-0.5,2.9-0.8
					c0.5-0.1,0.9-0.3,0.8-0.5c0-0.1,0.1-0.1,0.3-0.2c0.6-0.3,0.8-0.5,0.4-0.7c-0.1-0.1-0.3-0.2-0.3-0.4c-0.1-0.4-0.5-0.4-1.2-0.2
					c-1.2,0.4-2.4,0.7-3.6,1c-1.4,0.4-2.9,0.7-4.4,1l-3.1,0.6c-0.8,0.1-1.5,0.2-2.3,0.3c-0.5,0.1-1,0.2-1.6,0.1l0,0
					c-0.1,0.1-0.2,0.1-0.3,0h0c-0.3-0.1-0.4,0.1-0.7,0.1c-0.6,0-1.2,0-1.8,0c-0.6-0.1-1.2-0.1-1.7,0c-0.1,0-0.2,0-0.3,0
					c-0.8-0.1-1.5-0.2-2.3-0.1c-0.1,0-0.3,0-0.4-0.1c-0.2-0.1-0.5-0.1-0.7-0.1l-0.1,0.1c-0.1-0.1,0-0.1,0.1-0.1
					c-0.1-0.1-0.3-0.1-0.4-0.1c-0.8,0-1.6-0.1-2.3-0.2c-0.3-0.1-0.5-0.1-0.8-0.1c-0.5,0.1-1,0-1.5-0.1c-0.3-0.1-0.5-0.1-0.8,0h0
					c-0.2,0-0.4,0-0.6-0.2l0,0c-0.4-0.1-0.7-0.1-1.1-0.1C222.3,174.4,222.2,174.5,222.1,174.4C222.1,174.4,222.1,174.4,222.1,174.4z
					"/>
				<path id="Path_37306-2" class="st1" d="M291.8,174.4C291.8,174.4,291.8,174.4,291.8,174.4c-1-0.2-1.9-0.1-2.9-0.2
					c-0.8-0.1-1.6-0.1-2.4,0c-1.5,0.1-3,0.3-4.5,0.5c-1.1,0.3-2.2,0.4-3.3,0.5c-0.5,0-1-0.1-1.4-0.2c-0.4-0.2-0.8-0.5-1.2-0.8
					c-0.5-0.5-0.9-1-1.5-1.4c-0.3-0.3-0.7-0.4-1.1-0.6c-0.4-0.1-0.8-0.2-1.3-0.1c-0.9,0.1-1.7,0.5-2.4,1.1c-0.6,0.5-1.2,0.9-1.8,1.3
					c-0.8,0.5-1.8,0.9-2.7,1.1c-1.5,0.4-3,0.4-4.6,0.2c-0.5,0-1-0.1-1.4-0.3c-0.4-0.2-0.9-0.4-1.3-0.6c-0.3-0.1-0.6-0.2-0.8-0.4
					c-0.2-0.2-0.5-0.3-0.7-0.5c-0.2-0.2-0.5-0.4-0.8-0.7s-0.5-0.4-0.7-0.7c-0.2-0.2-0.4-0.3-0.5-0.2c-0.3,0-0.2,0.5,0.2,1
					c0.2,0.2,0.3,0.3,0.4,0.5c-0.2-0.1-0.4-0.2-0.6-0.4c-0.3-0.2-0.6-0.5-0.7-0.4c-0.2,0.1-0.1,0.3,0,0.6c0.1,0.2,0.3,0.4,0.4,0.5
					c0.3,0.2,0.5,0.5,0.8,0.8c0.2,0.2,0.4,0.4,0.6,0.5c0.4,0.2,0.8,0.5,1.2,0.7c0.4,0.2,0.8,0.4,1.3,0.6l0.7,0.3l0.7,0.2l0.4,0.1
					l0.4,0.1l0.7,0.1c0.5,0,1,0.1,1.5,0.1l0.8,0l0.8-0.1c1.2-0.1,2.3-0.4,3.4-0.9c1.1-0.5,2.2-1.1,3.1-1.9c0.4-0.3,0.9-0.5,1.2-0.8
					c0.4-0.1,0.8-0.1,1.1-0.1c0.4,0,0.7,0.2,1,0.5c0.5,0.5,1,1.1,1.6,1.5c0.4,0.3,0.7,0.5,1.2,0.7c0.4,0.2,0.8,0.3,1.3,0.4
					c1.2,0.1,2.3,0,3.5-0.2c1-0.2,1.9-0.4,2.9-0.5l0.7-0.1l0.7-0.1c0.5,0,1,0,1.5,0c1.8,0,3.6,0.1,5.4,0.3l5.7,0.7
					c1.7,0.2,3.4,0.3,5.1,0.4c1.7,0,3.4,0,5.1-0.2c2.2-0.2,4.4-0.6,6.5-0.9c1.7-0.3,3.3-0.7,5-1.1c1-0.2,1.9-0.5,2.9-0.8
					c0.5-0.1,0.9-0.3,0.8-0.5c0-0.1,0.1-0.1,0.3-0.2c0.6-0.3,0.8-0.5,0.4-0.7c-0.1-0.1-0.3-0.2-0.3-0.4c-0.1-0.4-0.5-0.4-1.2-0.2
					c-1.2,0.4-2.4,0.7-3.6,1c-1.4,0.4-2.9,0.7-4.4,1l-3.1,0.6c-0.8,0.1-1.5,0.2-2.3,0.3c-0.5,0.1-1,0.2-1.6,0.1l0,0
					c-0.1,0.1-0.2,0.1-0.3,0h0c-0.3-0.1-0.4,0.1-0.7,0.1c-0.6,0-1.2,0-1.8,0c-0.6-0.1-1.2-0.1-1.7,0c-0.1,0-0.2,0-0.3,0
					c-0.8-0.1-1.5-0.2-2.3-0.1c-0.1,0-0.3,0-0.4-0.1c-0.2-0.1-0.5-0.1-0.7-0.1l-0.1,0.1c-0.1-0.1,0-0.1,0.1-0.1
					c-0.1-0.1-0.3-0.1-0.4-0.1c-0.8,0-1.6-0.1-2.3-0.2c-0.3-0.1-0.5-0.1-0.8-0.1c-0.5,0.1-1,0-1.5-0.1c-0.3-0.1-0.5-0.1-0.8,0h0
					c-0.2,0-0.4,0-0.6-0.2l0,0c-0.4-0.1-0.7-0.1-1.1-0.1C292,174.4,291.9,174.5,291.8,174.4z"/>
				<path id="Path_37307" class="st1" d="M222.2,196.9C222.2,196.8,222.2,196.8,222.2,196.9c-0.5-0.5-1-0.7-1.6-0.8
					c-0.6-0.1-1.2-0.1-1.8,0c-0.8,0.1-1.6,0.3-2.4,0.7c-0.3,0.1-0.6,0.2-0.9,0.3c-0.3,0.1-0.6,0.1-0.9,0.2c-0.7,0.1-1.3,0-2,0
					c-2.1-0.2-4.3-1-6.7-1.5c-1.3-0.3-2.7-0.4-4-0.2c-0.2,0-0.4,0-0.6,0.1l-0.6,0.1c-0.4,0.1-0.8,0.3-1.1,0.4
					c-0.7,0.3-1.4,0.7-2.1,1.1c-0.8,0.5-1.7,0.9-2.6,1.3c-1.4,0.4-2.9,0.3-4.2-0.2c-0.2-0.1-0.5-0.1-0.7-0.2
					c-0.2-0.1-0.4-0.2-0.6-0.3c-0.2-0.1-0.4-0.3-0.6-0.4c-0.2-0.1-0.4-0.2-0.6-0.4c-0.5-0.3-1-0.7-1.4-1.1c-0.5-0.5-1-0.9-1.6-1.4
					c-0.3-0.2-0.4-0.2-0.6-0.2c-0.3,0.1-0.2,0.5,0.3,1c0.2,0.1,0.3,0.3,0.5,0.5c-0.2-0.1-0.4-0.2-0.6-0.4c-0.3-0.2-0.6-0.4-0.8-0.2
					s-0.1,0.3,0.1,0.6c0.1,0.2,0.3,0.3,0.4,0.4c0.3,0.2,0.5,0.4,0.7,0.7c0.2,0.2,0.3,0.3,0.6,0.5c0.7,0.5,1.4,1,2.2,1.4
					c1.7,1,3.7,1.6,5.7,1.5l0.5,0l0.4-0.1c0.3-0.1,0.6-0.1,0.9-0.2c0.5-0.2,1.1-0.4,1.6-0.7c1.1-0.5,2-1.2,3-1.6
					c0.4-0.2,0.9-0.4,1.3-0.6c0.9-0.1,1.9-0.2,2.8-0.1c1.4,0.2,2.8,0.5,4.1,0.9c1,0.3,2.1,0.6,3.1,0.8c1,0.2,2,0.3,3.1,0.2l0.4,0
					l0.4-0.1c0.3-0.1,0.5-0.1,0.8-0.2c0.5-0.1,1-0.3,1.4-0.4c0.8-0.3,1.5-0.4,2.3-0.4c0.3,0,0.7,0.1,1,0.3c0.3,0.2,0.7,0.4,0.9,0.7
					c0.3,0.3,0.7,0.6,1.1,1c0.2,0.2,0.4,0.3,0.7,0.5c0.2,0.1,0.5,0.2,0.8,0.3c1,0.3,2.2,0.3,3.2,0c1.6-0.5,3.2-1.2,4.7-2
					c0.7-0.3,1.4-0.6,2.1-0.8c0.7-0.2,1.4-0.2,2.2-0.2c2.1,0.2,4.1,0.6,6.1,1.1c0.4,0.1,0.9,0.1,1.3,0.2c0.5,0,0.9,0,1.4,0
					c0.9-0.1,1.8-0.2,2.7-0.5c1.1-0.3,2.1-1,2.8-1.8c0.2-0.2,0.3-0.4,0.4-0.6c0.1-0.2,0.1-0.3,0-0.4c-0.1-0.1,0-0.2,0-0.4
					c0.2-0.8,0.1-0.9-0.3-0.8c-0.2,0.1-0.3,0.1-0.5,0c-0.1-0.1-0.3,0-0.4,0.1c-0.1,0.1-0.2,0.3-0.4,0.5c-0.3,0.4-0.6,0.8-1,1
					c-0.5,0.3-0.9,0.5-1.4,0.7c-1.3,0.4-2.7,0.5-4,0.2l-3-0.6c-0.8-0.1-1.5-0.3-2.4-0.4c-0.5,0-1.1-0.1-1.7-0.1l0,0
					c-0.1,0-0.3,0-0.4,0h0c-0.3-0.1-0.4,0.1-0.7,0.1c-0.7,0-1.3,0.1-2,0.4c-0.6,0.1-1.2,0.4-1.7,0.7c-0.1,0-0.2,0.1-0.3,0.1
					c-0.7,0.2-1.4,0.6-2,1c-0.1,0.1-0.2,0.1-0.3,0.1c-0.2,0.1-0.4,0.1-0.6,0.2l0,0.1c-0.1,0,0-0.1,0-0.1c-0.1,0-0.3,0-0.4,0.1
					c-0.6,0.3-1.2,0.4-1.9,0.4c-0.2,0-0.4-0.1-0.6-0.1c-0.2,0-0.4,0-0.5-0.1c-0.2-0.1-0.4-0.2-0.5-0.3c-0.2-0.1-0.3-0.3-0.6-0.3l0,0
					c-0.2-0.1-0.3-0.3-0.4-0.4v0c-0.3-0.2-0.5-0.6-0.9-0.7C222.3,196.9,222.3,196.9,222.2,196.9z"/>
				<path id="Path_37307-2" class="st1" d="M271.7,196.9C271.7,196.8,271.7,196.8,271.7,196.9c-0.5-0.5-1-0.7-1.6-0.8
					c-0.6-0.1-1.2-0.1-1.8,0c-0.8,0.1-1.6,0.3-2.4,0.7c-0.3,0.1-0.6,0.2-0.9,0.3c-0.3,0.1-0.6,0.1-0.9,0.2c-0.7,0.1-1.3,0-2,0
					c-2.1-0.2-4.3-1-6.7-1.5c-1.3-0.3-2.7-0.4-4-0.2c-0.2,0-0.4,0-0.6,0.1l-0.6,0.1c-0.4,0.1-0.8,0.3-1.1,0.4
					c-0.7,0.3-1.4,0.7-2.1,1.1c-0.8,0.5-1.7,0.9-2.6,1.3c-1.4,0.4-2.9,0.3-4.2-0.2c-0.2-0.1-0.5-0.1-0.7-0.2
					c-0.2-0.1-0.4-0.2-0.6-0.3c-0.2-0.1-0.4-0.3-0.6-0.4c-0.2-0.1-0.4-0.2-0.6-0.4c-0.5-0.3-1-0.7-1.4-1.1c-0.5-0.5-1-0.9-1.6-1.4
					c-0.3-0.2-0.4-0.2-0.6-0.2c-0.3,0.1-0.2,0.5,0.3,1c0.2,0.1,0.3,0.3,0.5,0.5c-0.2-0.1-0.4-0.2-0.6-0.4c-0.3-0.2-0.6-0.4-0.8-0.2
					c-0.1,0.1-0.1,0.3,0.1,0.6c0.1,0.2,0.3,0.3,0.4,0.4c0.3,0.2,0.5,0.4,0.7,0.7c0.2,0.2,0.3,0.3,0.6,0.5c0.7,0.5,1.4,1,2.2,1.4
					c1.7,1,3.7,1.6,5.7,1.5l0.5,0l0.4-0.1c0.3-0.1,0.6-0.1,0.9-0.2c0.5-0.2,1.1-0.4,1.6-0.7c1.1-0.5,2-1.2,3-1.6
					c0.4-0.2,0.9-0.4,1.3-0.6c0.9-0.1,1.9-0.2,2.8-0.1c1.4,0.2,2.8,0.5,4.1,0.9c1,0.3,2.1,0.6,3.1,0.8c1,0.2,2,0.3,3.1,0.2l0.4,0
					l0.4-0.1c0.3-0.1,0.5-0.1,0.8-0.2c0.5-0.1,1-0.3,1.4-0.4c0.8-0.3,1.5-0.4,2.3-0.4c0.3,0,0.7,0.1,1,0.3c0.3,0.2,0.7,0.4,0.9,0.7
					c0.3,0.3,0.7,0.6,1.1,1c0.2,0.2,0.4,0.3,0.7,0.5c0.2,0.1,0.5,0.2,0.8,0.3c1,0.3,2.2,0.3,3.2,0c1.6-0.5,3.2-1.2,4.7-2
					c0.7-0.3,1.4-0.6,2.1-0.8c0.7-0.2,1.4-0.2,2.2-0.2c2.1,0.2,4.1,0.6,6.1,1.1c0.4,0.1,0.9,0.1,1.3,0.2c0.5,0,0.9,0,1.4,0
					c0.9-0.1,1.8-0.2,2.7-0.5c1.1-0.3,2.1-1,2.8-1.8c0.2-0.2,0.3-0.4,0.4-0.6c0.1-0.2,0.1-0.3,0-0.4c-0.1-0.1,0-0.2,0-0.4
					c0.2-0.8,0.1-0.9-0.3-0.8c-0.2,0.1-0.3,0.1-0.5,0c-0.1-0.1-0.3,0-0.4,0.1c-0.1,0.1-0.2,0.3-0.4,0.5c-0.3,0.4-0.6,0.8-1,1
					c-0.5,0.3-0.9,0.5-1.4,0.7c-1.3,0.4-2.7,0.5-4,0.2l-3-0.6c-0.8-0.1-1.5-0.3-2.4-0.4c-0.5,0-1.1-0.1-1.7-0.1l0,0
					c-0.1,0-0.3,0-0.4,0h0c-0.3-0.1-0.4,0.1-0.7,0.1c-0.7,0-1.3,0.1-2,0.4c-0.6,0.1-1.2,0.4-1.7,0.7c-0.1,0-0.2,0.1-0.3,0.1
					c-0.7,0.2-1.4,0.6-2,1c-0.1,0.1-0.2,0.1-0.3,0.1c-0.2,0.1-0.4,0.1-0.6,0.2l0,0.1c-0.1,0,0-0.1,0-0.1c-0.1,0-0.3,0-0.4,0.1
					c-0.6,0.3-1.2,0.4-1.9,0.4c-0.2,0-0.4-0.1-0.6-0.1c-0.2,0-0.4,0-0.5-0.1c-0.2-0.1-0.4-0.2-0.5-0.3c-0.2-0.1-0.3-0.3-0.6-0.3l0,0
					c-0.2-0.1-0.3-0.3-0.4-0.4l0,0c-0.3-0.2-0.5-0.6-0.9-0.7C271.8,196.9,271.7,196.9,271.7,196.9z"/>
				<path id="Path_37308" class="st1" d="M215,218.9C215,218.9,215,218.9,215,218.9c-0.4-0.2-0.7-0.3-1.1-0.3
					c-0.4-0.1-0.8-0.2-1.1-0.3c-0.6-0.2-1.2-0.4-1.9-0.6c-1.2-0.3-2.4-0.6-3.7-0.8c-0.3,0-0.5-0.1-0.8-0.1c-0.3,0-0.5-0.1-0.8,0
					c-0.5,0-1.1,0-1.6,0.1c-1.1,0.2-2.1,0.5-3,1.1c-1,0.5-1.8,1.2-2.7,1.7c-1,0.6-2.1,0.9-3.3,1c-0.2,0-0.4,0-0.6,0s-0.4,0-0.6,0
					c-0.4,0-0.8,0-1.2,0c-1.3-0.2-2.6-0.5-3.8-0.9c-0.4-0.1-0.8-0.2-1.2-0.4c-0.4-0.2-0.7-0.4-1.1-0.5c-0.5-0.2-0.9-0.4-1.4-0.7
					c-0.5-0.3-1-0.6-1.6-0.9c-0.3-0.1-0.4-0.1-0.5,0c-0.2,0.2-0.1,0.5,0.4,0.8c0.2,0.1,0.3,0.2,0.5,0.3c-0.2,0-0.4-0.1-0.5-0.2
					c-0.3-0.1-0.6-0.2-0.7,0c-0.1,0.1,0,0.3,0.1,0.6c0.1,0.1,0.3,0.2,0.4,0.3c0.3,0.1,0.5,0.3,0.7,0.5c0.2,0.1,0.3,0.2,0.5,0.3
					l2,0.9c1.5,0.6,3,1.1,4.6,1.4c0.9,0.2,1.9,0.3,2.9,0.3c0.5,0,1.1,0,1.6-0.1c0.5-0.1,1-0.2,1.5-0.4c0.2-0.1,0.5-0.1,0.7-0.2
					c0.2-0.1,0.4-0.2,0.6-0.3c0.9-0.3,1.7-0.7,2.4-1.3c0.9-0.7,2-1.2,3.1-1.5c0.8-0.1,1.6-0.2,2.4-0.1c1.6,0.2,3.1,0.5,4.7,1
					c1.5,0.5,2.9,0.9,4.5,1.3c0.8,0.2,1.7,0.3,2.5,0.3c0.4,0,0.9,0,1.3-0.1c0.4,0,0.9-0.1,1.3-0.2c1.2-0.5,2.5-0.8,3.8-0.8
					c1.3,0.2,2.6,0.6,3.8,1.1c1.8,0.5,3.7,0.8,5.6,0.8c1.5,0,2.9-0.1,4.4-0.4c0.8-0.2,1.7-0.4,2.5-0.7c0.4-0.1,0.7-0.3,0.6-0.6
					c0-0.1,0.1-0.1,0.2-0.2c0.5-0.3,0.6-0.5,0.3-0.7c-0.1-0.1-0.3-0.2-0.3-0.4c-0.1-0.3-0.4-0.4-1-0.2c-0.9,0.4-1.9,0.6-2.9,0.8
					c-1.2,0.3-2.4,0.4-3.6,0.3c-0.8,0-1.7-0.1-2.5-0.2c-0.3,0-0.6-0.1-0.9-0.1s-0.6-0.1-0.9-0.2c-0.4,0-0.8-0.2-1.2-0.3h0
					c-0.1,0-0.2,0-0.3-0.1v0c-0.2-0.1-0.3,0-0.5-0.1c-0.5-0.2-1-0.4-1.5-0.5c-0.5-0.2-1.1-0.3-1.7-0.2c0,0-0.2,0-0.3,0
					c-0.7-0.1-1.5,0-2.2,0.4c-0.1,0-0.2,0.1-0.3,0.1c-0.2,0-0.4,0.1-0.6,0.1l0,0.1c-0.1,0,0-0.1,0-0.1c-0.1,0-0.3,0-0.4,0.1
					c-0.3,0.1-0.6,0.2-0.8,0.3c-0.3,0.1-0.6,0.1-0.9,0.1c-0.2,0-0.4,0-0.6,0c-0.2,0.1-0.4,0.1-0.5,0.1c-0.2,0-0.4,0-0.6-0.1
					c-0.2,0-0.4,0-0.6,0h0c-0.2,0-0.3-0.1-0.5-0.2l0,0C215.6,219,215.4,218.9,215,218.9C215.1,218.9,215.1,219,215,218.9z"/>
				<path id="Path_37308-2" class="st1" d="M301.1,218.9C301.1,218.9,301.1,218.9,301.1,218.9c-0.4-0.2-0.7-0.3-1.1-0.3
					c-0.4-0.1-0.8-0.2-1.1-0.3c-0.6-0.2-1.2-0.4-1.9-0.6c-1.2-0.3-2.4-0.6-3.7-0.8c-0.3,0-0.5-0.1-0.8-0.1c-0.3,0-0.5-0.1-0.8,0
					c-0.5,0-1.1,0-1.6,0.1c-1.1,0.2-2.1,0.5-3,1.1c-1,0.5-1.8,1.2-2.7,1.7c-1,0.6-2.1,0.9-3.3,1c-0.2,0-0.4,0-0.6,0s-0.4,0-0.6,0
					c-0.4,0-0.8,0-1.2,0c-1.3-0.2-2.6-0.5-3.8-0.9c-0.4-0.1-0.8-0.2-1.2-0.4c-0.4-0.2-0.7-0.4-1.1-0.5c-0.5-0.2-0.9-0.4-1.4-0.7
					c-0.5-0.3-1-0.6-1.6-0.9c-0.3-0.1-0.4-0.1-0.5,0c-0.2,0.2-0.1,0.5,0.4,0.8c0.2,0.1,0.3,0.2,0.5,0.3c-0.2,0-0.4-0.1-0.5-0.2
					c-0.3-0.1-0.6-0.2-0.7,0c-0.1,0.1,0,0.3,0.1,0.6c0.1,0.1,0.3,0.2,0.4,0.3c0.3,0.1,0.5,0.3,0.7,0.5c0.2,0.1,0.3,0.2,0.5,0.3
					l2,0.9c1.5,0.6,3,1.1,4.6,1.4c0.9,0.2,1.9,0.3,2.9,0.3c0.5,0,1.1,0,1.6-0.1c0.5-0.1,1-0.2,1.5-0.4c0.2-0.1,0.5-0.1,0.7-0.2
					c0.2-0.1,0.4-0.2,0.6-0.3c0.9-0.3,1.7-0.7,2.4-1.3c0.9-0.7,2-1.2,3.1-1.5c0.8-0.1,1.6-0.2,2.4-0.1c1.6,0.2,3.1,0.5,4.7,1
					c1.5,0.5,2.9,0.9,4.5,1.3c0.8,0.2,1.7,0.3,2.5,0.3c0.4,0,0.9,0,1.3-0.1c0.4,0,0.9-0.1,1.3-0.2c1.2-0.5,2.5-0.8,3.8-0.8
					c1.3,0.2,2.6,0.6,3.8,1.1c1.8,0.5,3.7,0.8,5.6,0.8c1.5,0,2.9-0.1,4.4-0.4c0.8-0.2,1.7-0.4,2.5-0.7c0.4-0.1,0.7-0.3,0.6-0.6
					c0-0.1,0.1-0.1,0.2-0.2c0.5-0.3,0.6-0.5,0.3-0.7c-0.1-0.1-0.3-0.2-0.3-0.4c-0.1-0.3-0.4-0.4-1-0.2c-0.9,0.4-1.9,0.6-2.9,0.8
					c-1.2,0.3-2.4,0.4-3.6,0.3c-0.8,0-1.7-0.1-2.5-0.2c-0.3,0-0.6-0.1-0.9-0.1s-0.6-0.1-0.9-0.2c-0.4,0-0.8-0.2-1.2-0.3h0
					c-0.1,0-0.2,0-0.3-0.1v0c-0.2-0.1-0.3,0-0.5-0.1c-0.5-0.2-1-0.4-1.5-0.5c-0.5-0.2-1.1-0.3-1.7-0.2c0,0-0.2,0-0.3,0
					c-0.7-0.1-1.5,0-2.2,0.4c-0.1,0-0.2,0.1-0.3,0.1c-0.2,0-0.4,0.1-0.6,0.1l0,0.1c-0.1,0,0-0.1,0-0.1c-0.1,0-0.3,0-0.4,0.1
					c-0.3,0.1-0.6,0.2-0.8,0.3c-0.3,0.1-0.6,0.1-0.9,0.1c-0.2,0-0.4,0-0.6,0c-0.2,0.1-0.4,0.1-0.5,0.1c-0.2,0-0.4,0-0.6-0.1
					c-0.2,0-0.4,0-0.6,0h0c-0.2,0-0.3-0.1-0.5-0.2l0,0C301.7,219,301.5,218.9,301.1,218.9C301.2,218.9,301.1,219,301.1,218.9z"/>
				<path id="Path_37309" class="st1" d="M125.1,198.9C125.1,198.9,125.1,198.9,125.1,198.9l-0.2-0.1l-0.1,0c0,0,0,0,0,0h0l0,0
					c0,0,0,0,0,0c0,0,0,0.1,0-0.2c0.1-0.7,0.1-1.3,0.1-2c0-1.2,0-2.5,0.1-3.7c0.1-2,0.1-4,0.1-6c0-1.1,0-2.2,0.1-3.3
					c0.1-1.3,0-2.6,0.1-3.9c0.1-0.9,0-1.8,0-2.7c0-1.4,0.1-2.8,0-4.2c-0.1-0.4-0.1-0.9,0-1.3c0.1-0.4,0.1-0.9,0.1-1.3
					c0-0.5,0-1.1,0.1-1.6c0.1-0.6,0.1-1.2,0.1-1.9c0-0.3-0.1-0.4-0.2-0.5c-0.3-0.1-0.5,0.2-0.6,0.7c0,0.2,0,0.4-0.1,0.6
					c-0.1-0.2-0.1-0.4-0.1-0.6c0-0.3-0.1-0.6-0.3-0.7c-0.2,0-0.3,0.1-0.4,0.4c-0.1,0.2-0.1,0.4-0.1,0.5c0,0.3,0,0.6-0.1,0.9
					c-0.1,0.2-0.1,0.4-0.1,0.6c0,0.7,0,1.4,0,2.2c-0.1,1.6,0,3.2,0,4.7c0,0.9,0,1.9,0,2.8c0,1,0,2,0,3c0,0.5,0,0.9,0.1,1.4
					c-0.1,0.9-0.1,1.8-0.1,2.7c-0.1,1.2,0.1,2.5-0.1,3.8c-0.1,0.9,0,1.8-0.1,2.7c-0.1,1.7,0,3.3-0.2,5c-0.1,1.1-0.1,2.3-0.2,3.4
					l1.6,0.2l1,0.1c1.6,0.2,3.2,0.4,4.8,0.5c2.8,0.3,5.7,0.5,8.6,0.6c1.8,0.1,3.7,0.1,5.5,0.1c1.4,0,2.9,0,4.3-0.1
					c0.8,0,1.7-0.1,2.5-0.1c0.4,0,0.8-0.1,0.8-0.4c0-0.1,0.1-0.1,0.3-0.1c0.6-0.1,0.7-0.3,0.5-0.6c-0.1-0.1-0.2-0.3-0.2-0.5
					c0-0.4-0.3-0.5-1-0.4c-1.1,0.1-2.1,0.2-3.2,0.2c-1.3,0.1-2.6,0.1-3.8,0.1c-0.9,0-1.8,0-2.7,0c-0.7,0-1.3,0-2,0
					c-0.4,0-0.9,0-1.3-0.1l0,0c-0.1,0-0.2,0-0.3,0h0c-0.2-0.1-0.3,0.1-0.6,0c-0.5-0.1-1-0.1-1.6-0.1c-0.5-0.1-1-0.1-1.5,0
					c0,0-0.2,0-0.3,0c-0.6-0.2-1.3-0.2-2-0.1c-0.1,0-0.2,0-0.3-0.1c-0.2-0.1-0.4-0.1-0.6-0.1l-0.1,0.1c-0.1-0.1,0-0.1,0.1-0.1
					c-0.1-0.1-0.2-0.1-0.4-0.1c-0.7,0-1.3,0-2-0.1c-0.2-0.1-0.4-0.1-0.6-0.1c-0.4,0.1-0.9,0.1-1.3-0.1c-0.2-0.1-0.4-0.1-0.6,0h0
					c-0.2,0-0.4,0-0.5-0.1l0,0c-0.3-0.1-0.6-0.1-0.9-0.1C125.2,198.9,125.2,199,125.1,198.9z"/>
				<path id="Path_37310" class="st1" d="M130,173.9C130,173.9,130,173.9,130,173.9c-0.2,0.1-0.2,0.3-0.4,0.4
					c-0.1,0.1-0.2,0.2-0.3,0.4c-0.2,0.3-0.3,0.5-0.5,0.8c-0.3,0.4-0.6,0.8-0.9,1.2c-0.2,0.2-0.3,0.4-0.5,0.6
					c-0.2,0.2-0.4,0.5-0.6,0.7c-0.2,0.2-0.3,0.4-0.4,0.5c-0.2,0.3-0.4,0.5-0.6,0.8c-0.1,0.1-0.1,0.2-0.2,0.3c-0.1,0-0.2,0.1-0.3,0.2
					c-0.1,0.1-0.2,0.2-0.3,0.3c-0.1,0.1-0.3,0.2-0.3,0.3c0,0.1,0,0.1,0.1,0.2c0.2,0.2,0.4,0.3,0.6,0.2c0,0,0.1-0.1,0.2-0.1
					c0,0.1,0,0.1,0,0.2c0,0.1,0,0.2,0.1,0.3c0.1,0.1,0.2,0.2,0.4,0.2c0.1,0,0.1,0,0.1-0.1c0-0.1,0.1-0.1,0.2-0.1
					c0.1,0,0.1,0,0.1-0.1c0.1-0.2,0.2-0.3,0.3-0.4c0.3-0.3,0.4-0.7,0.7-0.9c0.2-0.2,0.3-0.4,0.4-0.6c0.2-0.2,0.3-0.4,0.5-0.6
					c0.1-0.1,0.2-0.2,0.2-0.3c0.3,0,0.3-0.3,0.5-0.5c0.3-0.2,0.3-0.6,0.6-0.7c0.2-0.1,0.3-0.4,0.4-0.5c0.3-0.3,0.5-0.7,0.8-1
					c0.3-0.3,0.5-0.6,0.8-0.9s0.6-0.6,0.9-0.9c0.5-0.5,1-1,1.5-1.5c0.3-0.3,0.6-0.7,0.9-1c0.2-0.3,0.5-0.5,0.7-0.8
					c0.1-0.2,0.3-0.3,0.4-0.5c0.1-0.1,0.1-0.2-0.1-0.4c-0.1-0.1-0.1-0.1-0.1-0.1c0-0.2-0.1-0.3-0.4-0.5c-0.1-0.1-0.3-0.2-0.4-0.3
					c-0.3-0.2-0.4-0.3-0.5-0.1c-0.1,0.2-0.3,0.4-0.4,0.7c-0.2,0.3-0.4,0.5-0.6,0.7c-0.2,0.2-0.3,0.3-0.4,0.5
					c-0.1,0.1-0.2,0.2-0.3,0.4c-0.1,0.1-0.1,0.2-0.2,0.2v0c0,0.1,0,0.1,0,0.1l0,0c-0.1,0,0,0.1-0.1,0.1c-0.2,0-0.2,0.2-0.3,0.3
					s-0.3,0.1-0.2,0.3c0,0-0.1,0-0.1,0c-0.1,0.1-0.4,0.1-0.3,0.4c0,0,0,0-0.1,0c-0.1,0-0.1,0-0.1,0.1l0.1,0.1c-0.1,0,0,0-0.1-0.1
					c-0.1,0-0.1,0-0.1,0c-0.1,0.2-0.2,0.3-0.3,0.4c0,0-0.1,0-0.1,0.1c0,0.1,0,0.3-0.2,0.3c-0.1,0-0.1,0.1,0,0.2l0,0
					c0,0-0.1,0.1-0.2,0h0C130.1,173.7,129.9,173.7,130,173.9C130,173.9,130,173.9,130,173.9z"/>
				<path id="Path_37311" class="st1" d="M133.5,181C133.4,181,133.4,181,133.5,181c-0.4,0.2-0.5,0.6-0.8,0.8
					c-0.2,0.2-0.4,0.4-0.6,0.7c-0.3,0.5-0.7,0.9-1,1.4c-0.6,0.7-1.1,1.4-1.8,2.1c-0.3,0.4-0.6,0.8-1,1.1c-0.4,0.4-0.7,0.9-1.2,1.4
					c-0.3,0.3-0.5,0.6-0.8,1c-0.4,0.5-0.8,1-1.2,1.5c-0.1,0.2-0.2,0.4-0.4,0.5c-0.2,0.1-0.3,0.2-0.4,0.4c-0.1,0.2-0.3,0.4-0.5,0.5
					c-0.2,0.2-0.4,0.4-0.6,0.6c-0.1,0.1-0.1,0.2,0,0.3c0.1,0.2,0.4,0.3,0.6,0.1c0,0,0,0,0,0l0,0c0.1-0.1,0.1-0.1,0.2-0.2
					c0,0.1-0.1,0.2-0.1,0.3c-0.1,0.1-0.1,0.3,0,0.4c0.1,0.1,0.3,0.2,0.4,0.1c0.1,0,0.2-0.1,0.2-0.1c0.1-0.1,0.2-0.2,0.3-0.2
					c0.1,0,0.2-0.1,0.2-0.2c0.2-0.3,0.4-0.5,0.6-0.8c0.5-0.5,0.9-1.2,1.4-1.7c0.3-0.3,0.5-0.7,0.8-1c0.3-0.3,0.6-0.7,0.9-1.1
					c0.2-0.1,0.3-0.3,0.3-0.5c0.4-0.2,0.5-0.6,0.9-0.9c0.4-0.4,0.6-0.9,1.1-1.3c0.3-0.3,0.6-0.6,0.8-1c0.5-0.6,0.9-1.2,1.5-1.8
					c0.5-0.5,0.9-1.1,1.4-1.6c0.5-0.5,1-1.1,1.5-1.6c0.9-1,1.8-1.9,2.6-2.9c0.6-0.6,1.1-1.3,1.7-1.9c0.4-0.5,0.8-1,1.3-1.5
					c0.2-0.3,0.5-0.6,0.7-0.9c0.1-0.1,0.1-0.3,0-0.4c0,0,0,0-0.1-0.1c-0.1-0.1,0-0.1,0-0.2c0.1-0.3,0-0.4-0.3-0.5
					c-0.1-0.1-0.3-0.1-0.4-0.2c-0.3-0.2-0.5-0.2-0.7,0c-0.3,0.4-0.6,0.8-0.9,1.2c-0.3,0.5-0.7,0.9-1.1,1.4c-0.3,0.3-0.6,0.6-0.8,0.9
					c-0.2,0.2-0.4,0.5-0.6,0.7c-0.1,0.2-0.2,0.3-0.4,0.5v0c0,0.1,0,0.1-0.1,0.1h0c-0.1,0,0,0.2-0.1,0.2c-0.2,0.1-0.4,0.3-0.5,0.5
					c-0.2,0.2-0.4,0.2-0.4,0.6c0,0-0.1,0-0.1,0.1c-0.2,0.2-0.6,0.3-0.6,0.7c0,0-0.1,0.1-0.1,0.1c-0.1,0-0.2,0.1-0.2,0.2l0.1,0.1
					c-0.1,0,0,0,0-0.1c-0.1,0-0.1,0-0.1,0.1c-0.1,0.3-0.3,0.5-0.6,0.7c-0.1,0.1-0.2,0.1-0.2,0.2c-0.1,0.2-0.1,0.4-0.4,0.5
					c-0.1,0-0.1,0.2-0.1,0.3l0,0c-0.1,0.1-0.1,0.1-0.2,0.1h0C133.7,180.7,133.5,180.8,133.5,181C133.5,180.9,133.5,181,133.5,181z"
					/>
				<path id="Path_37312" class="st1" d="M155.5,170.7C155.5,170.8,155.5,170.8,155.5,170.7c-0.1,0.4,0.1,0.8,0.1,1.1
					c0,0.3,0.1,0.6,0.2,0.9c0.1,0.6,0.2,1.1,0.3,1.7c0.2,0.8,0.2,1.6,0,2.4l1.6-0.1l0-0.1c-0.2-0.5-0.4-1-0.5-1.4
					c-0.2-0.6-0.5-1.1-0.6-1.7c-0.1-0.4-0.3-0.8-0.5-1.2l-0.4-0.9l-0.2-0.5c-0.1-0.2-0.1-0.3-0.2-0.5c-0.2-0.3-0.5-0.6-0.8-0.8
					c-0.3-0.2-0.8-0.2-1.1-0.1c-0.3,0.1-0.5,0.3-0.8,0.5c-0.1,0.1-0.2,0.2-0.3,0.3c-0.3,0.3-0.4,0.7-0.5,1.1c0,0.1,0,0.2,0.2,0.3
					c0.2,0.1,0.5,0,0.6-0.2c0,0,0,0,0,0c0,0,0,0,0,0c0-0.1,0.1-0.2,0.2-0.2c0.1,0.1,0,0.2,0,0.3c0,0.2,0.1,0.3,0.2,0.4
					c0.2,0,0.3,0,0.5-0.1c0.1,0,0.1-0.1,0.1-0.2c0-0.1,0.1-0.2,0.2-0.2c0.1,0,0.1-0.1,0.1-0.1s0,0,0,0c0,0,0,0,0,0c0,0,0,0,0,0
					s0,0,0-0.1c0,0,0-0.1,0-0.1c0-0.1,0-0.1,0-0.2l0,0l0,0l0,0c-0.1,0.1-0.1,0.1-0.2,0.1c0,0,0,0,0,0c0,0,0.1,0.1,0.1,0.2
					c0.2,0.3,0.3,0.7,0.4,1c0.1,0.4,0.4,0.8,0.5,1.2c0.2,0.4,0.4,0.9,0.5,1.3c0.1,0.2,0.2,0.4,0.3,0.6c0,0.5,0.3,0.8,0.4,1.2
					c0.1,0.2,0.2,0.5,0.3,0.7l1.1,2.3l0.4-2.4c0.1-0.4,0.1-0.8,0.1-1.2c0-0.5,0-0.9-0.1-1.4c-0.1-0.8-0.3-1.6-0.4-2.4
					c-0.1-0.7-0.2-1.5-0.3-2.2c-0.1-0.8-0.2-1.5-0.3-2.3l-0.2-1.1l-1.7,0.4c0.2,1,0.5,2,0.7,3c0.1,0.4,0.3,0.8,0.4,1.3l0.2,0.6
					c0.1,0.2,0.2,0.5,0.3,0.7c0.2,0.5,0.5,0.9,1,1.1c0.3,0.2,0.6,0.3,0.9,0.3c0.3,0,0.6,0,0.9-0.1c0.4-0.1,0.8-0.3,1.2-0.6
					c0.1-0.1,0.2-0.1,0.1-0.4c0-0.1,0-0.1,0.1-0.1c0.2-0.1,0.3-0.4,0.2-0.6c0-0.2-0.1-0.3-0.1-0.5c0-0.2,0-0.3-0.2-0.4
					c-0.2-0.1-0.4-0.1-0.6,0c-0.3,0.1-0.5,0.3-0.8,0.4c-0.1,0.1-0.3,0.2-0.4,0.2c-0.1,0-0.2,0-0.2,0c-0.1-0.1-0.2-0.3-0.3-0.4
					c-0.1-0.3-0.2-0.6-0.4-1c-0.1-0.3-0.2-0.6-0.3-0.9c-0.1-0.2-0.2-0.4-0.2-0.6h0c-0.1,0-0.1-0.1,0-0.1l0,0
					c0.1-0.1-0.1-0.1-0.1-0.2c0-0.2,0-0.5-0.1-0.7c-0.1-0.2,0.1-0.5-0.2-0.7c0,0,0-0.1,0-0.1c-0.1-0.3,0-0.6-0.1-0.8l-2,0.4
					c0,0,0.1,0.1,0.1,0.1c0,0,0,0.1,0,0.2c0,0.1,0,0.2,0,0.3h0.1c0,0.1-0.1,0-0.1,0c0,0.1,0,0.1,0,0.2c0.1,0.3,0.2,0.6,0.2,0.9
					c0,0.1,0,0.2,0,0.3c0.1,0.2,0.2,0.3,0.1,0.6c0,0.1,0,0.2,0.1,0.3v0c0,0.1,0,0.2-0.1,0.3l0,0
					C155.4,170.4,155.3,170.6,155.5,170.7C155.5,170.7,155.5,170.7,155.5,170.7z"/>
				<path id="Path_37313" class="st1" d="M149.6,185.3c0-0.1,0-0.1,0-0.1c-0.5-2.4-1.2-4.8-2.2-7.1c-0.8-2-1.9-3.8-3.4-5.3
					c-1.4-1.4-3-2.5-4.7-3.5c-0.8-0.5-1.7-0.9-2.6-1.2c-0.9-0.4-1.8-0.7-2.7-1c-2.9-1-6-1.5-9.1-1.5c-3.1,0-6.1,0.3-9.1,1.1
					c-3.2,0.8-6.3,2.1-9.2,3.8c-3.4,2.1-6.4,4.8-8.8,8c-0.8,1.1-1.6,2.3-2.2,3.5l-0.9,1.9c-0.1,0.2-0.2,0.3-0.2,0.5l-0.2,0.5l-0.4,1
					c-0.4,1-0.7,2-1,3c-0.2,0.5-0.3,1-0.4,1.5l-0.3,1.6l-0.2,1.6c-0.1,0.5-0.1,1.1-0.2,1.6c-0.1,1.1-0.1,2.1-0.1,3.2
					c0,0.3,0,0.7,0,1s0,0.7,0.1,1c0.1,0.7,0.1,1.3,0.2,2c0.1,0.7,0.1,1.3,0.3,2c0.1,0.3,0.1,0.7,0.2,1l0.3,1
					c0.2,0.8,0.4,1.6,0.7,2.4s0.5,1.6,0.8,2.3c0.3,0.9,0.7,1.8,1.2,2.6l0.7,1.3c0.1,0.2,0.2,0.4,0.4,0.6L97,216c0.5,0.8,0.8,1,1,1.1
					c0.5,0.2,0.1-0.8-0.8-2.2c-0.3-0.5-0.6-1-0.8-1.5c0.3,0.4,0.6,1,0.9,1.4c0.5,0.7,1.1,1.4,1.3,1.4c0.2,0,0-0.5-0.3-1.2
					c-0.2-0.4-0.5-0.9-0.8-1.3c-0.2-0.4-0.4-0.8-0.6-1.1c-0.1-0.2-0.2-0.4-0.3-0.6c-0.1-0.2-0.1-0.4-0.2-0.6
					c-0.2-0.6-0.4-1.1-0.7-1.6c-0.2-0.5-0.4-1-0.5-1.5l-0.3-0.7l-0.1-0.4l-0.1-0.4c-0.3-1-0.5-2-0.7-3c-0.4-2.3-0.6-4.5-0.6-6.8
					c0-1.1,0.1-2.3,0.3-3.4l0.1-0.9c0-0.3,0.1-0.6,0.1-0.9l0.4-1.7c0.6-2.6,1.6-5.1,2.8-7.5c1.4-2.5,3.2-4.8,5.2-6.8
					c0.9-1,2.1-1.7,3-2.6c2.2-1.4,4.6-2.7,7-3.7c3.4-1.3,7.1-2.1,10.7-2.2c1.3-0.1,2.6,0,4,0.1l2,0.2c0.3,0,0.7,0.1,1,0.2l1,0.2
					l0.9,0.2l0.9,0.3c0.6,0.2,1.2,0.3,1.7,0.6c1.1,0.4,2.3,0.9,3.4,1.5c2.2,1.1,4.1,2.6,5.7,4.5c1.3,1.8,2.4,3.8,3,5.9
					c0.4,1.1,0.7,2.2,0.9,3.3c0.3,1.1,0.5,2.2,0.7,3.4c0.8,4.7,0.9,9.5,0.2,14.2c-0.3,2.1-0.8,4.1-1.5,6c-0.3,1-0.8,1.9-1.2,2.9
					l-0.7,1.4c-0.2,0.5-0.5,0.9-0.8,1.3c-2.2,3.5-5.1,6.5-8.7,8.7c-2.3,1.4-4.7,2.5-7.2,3.2c-2.5,0.7-5.2,1.1-7.8,1
					c-4.1-0.1-8.2-1.1-12-2.8c-2.2-1-4.2-2.3-6.1-3.8c-0.9-0.7-1.6-1.4-1.9-1.3c-0.1,0.1-0.3-0.2-0.6-0.5c-1.2-1.2-1.5-1.5-1.4-0.7
					c0.1,0.4,0.1,0.6,0,0.7c-0.1,0.1-0.1,0.4,0.2,0.8c0.2,0.3,0.4,0.5,0.6,0.7c0.3,0.3,0.6,0.7,0.9,0.9c1.2,1.1,2.5,2.1,3.9,3
					c1.4,0.9,2.8,1.7,4.4,2.3c1.8,0.8,3.7,1.4,5.6,1.8c1.9,0.4,3.9,0.7,5.9,0.8c2.8,0.1,5.5-0.2,8.2-0.9c2-0.5,3.9-1.3,5.8-2.2
					c0.6-0.3,1.2-0.6,1.8-1l0.9-0.5c0.3-0.2,0.6-0.4,0.9-0.5l0,0c0.2-0.2,0.5-0.4,0.8-0.5l0,0c0.5-0.4,0.9-0.7,1.4-1.1
					c1.3-1,2.5-2.1,3.5-3.4c1.1-1.1,2-2.4,2.7-3.8c0-0.1,0.3-0.4,0.4-0.7c1.1-1.7,1.9-3.6,2.4-5.6c0.1-0.2,0.2-0.6,0.3-1
					c0.2-0.6,0.4-1.2,0.5-1.8l-0.1-0.2c0.1-0.3,0.1,0.1,0,0.2c0.1-0.4,0.2-0.8,0.3-1.1c0.3-2,0.6-4.1,0.7-6.1c0.1-0.7,0.1-1.3,0.1-2
					c-0.1-1.3-0.2-2.6-0.2-3.9c0-0.7-0.1-1.3-0.3-1.9l0,0c0-0.3-0.1-0.6-0.1-0.9c0-0.2,0-0.5,0-0.7v0c-0.1-0.5-0.1-0.9-0.2-1.4
					c-0.1-0.5-0.2-0.9-0.3-1.4C149.6,185.6,149.6,185.5,149.6,185.3z"/>
				<path id="Path_37314" class="st1" d="M136.6,186.8C136.6,186.8,136.6,186.8,136.6,186.8c-0.4,0.2-0.5,0.6-0.9,0.9
					c-0.2,0.2-0.5,0.5-0.6,0.7c-0.4,0.5-0.8,1-1.2,1.4c-0.7,0.7-1.3,1.5-2,2.2c-0.4,0.4-0.7,0.8-1.1,1.2c-0.5,0.4-0.8,1-1.3,1.4
					c-0.3,0.3-0.6,0.7-0.9,1c-0.4,0.5-0.9,1-1.3,1.5c-0.1,0.2-0.2,0.4-0.4,0.5c-0.2,0.1-0.4,0.2-0.5,0.4c-0.2,0.2-0.4,0.4-0.6,0.5
					c-0.3,0.2-0.5,0.4-0.7,0.6c-0.1,0.1-0.1,0.2,0,0.3c0.1,0.2,0.4,0.3,0.6,0.1c0,0,0,0,0,0c0.1-0.1,0.2-0.1,0.2-0.2
					c0,0.1-0.1,0.2-0.1,0.3c-0.1,0.1-0.1,0.3,0,0.4c0.1,0.1,0.3,0.2,0.4,0.1c0.1,0,0.2-0.1,0.2-0.2c0.1-0.1,0.2-0.2,0.4-0.2
					c0.1,0,0.2-0.1,0.2-0.2c0.2-0.3,0.4-0.5,0.7-0.8c0.6-0.6,1-1.2,1.5-1.8c0.3-0.3,0.6-0.7,0.9-1c0.3-0.4,0.6-0.7,1-1.1
					c0.2-0.2,0.3-0.3,0.4-0.6c0.4-0.2,0.6-0.6,0.9-0.9c0.5-0.4,0.7-1,1.2-1.4c0.3-0.3,0.6-0.7,0.9-1c0.6-0.6,1-1.3,1.6-1.9
					c0.5-0.5,1-1.1,1.6-1.6c0.6-0.6,1.1-1.1,1.7-1.7c1-1,2-2,2.9-3c0.6-0.6,1.2-1.3,1.9-1.9c0.5-0.5,0.9-1,1.4-1.6
					c0.3-0.3,0.5-0.6,0.8-0.9c0.1-0.1,0.2-0.3,0-0.5c-0.1-0.1,0-0.1,0-0.2c0.1-0.3,0.1-0.4-0.3-0.6c-0.1-0.1-0.3-0.1-0.4-0.3
					c-0.3-0.2-0.5-0.2-0.7,0c-0.3,0.4-0.7,0.8-1,1.2c-0.4,0.5-0.8,1-1.3,1.4c-0.3,0.3-0.6,0.6-0.9,1c-0.2,0.3-0.5,0.5-0.7,0.7
					c-0.1,0.2-0.3,0.4-0.5,0.5v0c0,0.1,0,0.1-0.1,0.1h0c-0.1,0,0,0.2-0.2,0.2c-0.2,0.1-0.4,0.3-0.6,0.5c-0.2,0.2-0.5,0.2-0.5,0.6
					c0,0-0.1,0-0.1,0.1c-0.2,0.2-0.6,0.3-0.6,0.7c0,0-0.1,0.1-0.1,0.1c-0.1,0-0.2,0.1-0.2,0.2l0.1,0.1c-0.1,0,0,0,0-0.1
					c-0.1,0-0.1,0-0.2,0.1c-0.2,0.3-0.4,0.5-0.6,0.8c-0.1,0.1-0.2,0.1-0.2,0.2c-0.1,0.2-0.1,0.4-0.4,0.5c-0.1,0-0.1,0.2-0.1,0.3l0,0
					c-0.1,0.1-0.1,0.2-0.2,0.1h0C136.8,186.5,136.6,186.6,136.6,186.8C136.6,186.8,136.7,186.8,136.6,186.8z"/>
				<path id="Path_37315" class="st1" d="M141.7,192.7C141.7,192.7,141.6,192.6,141.7,192.7c-0.3,0.1-0.4,0.4-0.6,0.5
					c-0.2,0.1-0.3,0.3-0.4,0.5c-0.2,0.3-0.5,0.6-0.8,0.9c-0.4,0.5-0.9,1-1.3,1.5c-0.2,0.3-0.4,0.6-0.7,0.8c-0.3,0.3-0.5,0.7-0.8,1
					c-0.2,0.2-0.4,0.5-0.5,0.7c-0.3,0.3-0.6,0.7-0.8,1.1c-0.1,0.1-0.1,0.3-0.3,0.4c-0.1,0.1-0.3,0.2-0.3,0.3
					c-0.1,0.2-0.2,0.3-0.4,0.4c-0.2,0.1-0.3,0.3-0.4,0.5c0,0.1,0,0.2,0.1,0.3c0.1,0.2,0.4,0.2,0.6,0.1c0-0.1,0.1-0.1,0.2-0.1
					c0,0.1,0,0.1,0,0.2c0,0.1,0,0.3,0.1,0.3c0.1,0.1,0.3,0.2,0.4,0.2c0.1,0,0.1-0.1,0.2-0.1c0.1-0.1,0.1-0.1,0.3-0.2
					c0.1,0,0.1-0.1,0.2-0.1c0.1-0.2,0.3-0.4,0.4-0.6c0.3-0.4,0.6-0.9,0.9-1.2c0.2-0.2,0.3-0.5,0.5-0.7c0.2-0.2,0.4-0.5,0.6-0.8
					c0.1-0.1,0.2-0.2,0.2-0.4c0.3-0.1,0.4-0.4,0.6-0.6c0.3-0.2,0.4-0.7,0.8-0.9c0.2-0.2,0.4-0.4,0.6-0.7c0.4-0.4,0.7-0.8,1.1-1.2
					c0.4-0.3,0.7-0.7,1.1-1c0.4-0.3,0.8-0.7,1.2-1c0.7-0.6,1.4-1.2,2.1-1.7c0.5-0.4,0.9-0.8,1.4-1.1c0.4-0.3,0.7-0.6,1-0.9
					c0.2-0.2,0.4-0.4,0.6-0.5c0.1-0.1,0.2-0.2,0-0.4c0,0,0-0.1,0-0.2c0.1-0.2,0-0.3-0.2-0.5c-0.1-0.1-0.2-0.2-0.3-0.3
					c-0.2-0.3-0.4-0.4-0.5-0.2c-0.2,0.3-0.5,0.5-0.8,0.7c-0.3,0.3-0.6,0.6-1,0.8c-0.2,0.2-0.5,0.4-0.7,0.6c-0.2,0.2-0.3,0.3-0.5,0.4
					c-0.1,0.1-0.2,0.2-0.4,0.3l0,0c0,0.1,0,0.1-0.1,0.1l0,0c-0.1,0,0,0.1-0.1,0.2c-0.2,0-0.3,0.2-0.4,0.3s-0.4,0.1-0.3,0.4
					c0,0-0.1,0-0.1,0c-0.2,0.1-0.5,0.1-0.5,0.5c0,0-0.1,0-0.1,0.1c-0.1,0-0.1,0-0.2,0.1l0.1,0.1c-0.1,0,0,0,0-0.1c0,0-0.1,0-0.1,0.1
					c-0.1,0.2-0.3,0.4-0.4,0.5c-0.1,0-0.1,0-0.2,0.1c0,0.2-0.1,0.3-0.3,0.3c-0.1,0-0.1,0.1-0.1,0.2l0,0c0,0-0.1,0.1-0.2,0.1h0
					C141.8,192.5,141.7,192.5,141.7,192.7C141.7,192.6,141.7,192.7,141.7,192.7z"/>
			</g>
			<path class="st4" d="M236.3,256.1c-7-8.1-10.4-20.7-9.4-35.4c0.9-13.5,5.4-27,12-36.2l1.5,1.1c-13,17.9-17.1,52.8-2.7,69.3
				L236.3,256.1z"/>
			<path class="st5" d="M89.2,333.2l1.5,0l0,1l-1.7,0v-0.9c-0.4,0.2-0.8,0.3-1.2,0.5c-4.6,2.4-8.7,5.7-12.2,9.5
				c-1.7,1.7-3.3,3.5-4.8,5.4h0.2l0,1.1h-1.1c-2.4,2.9-4.6,5.9-6.6,9c-2.3,3.6-4.9,8.2-3.8,12.6H69V371l1.7,0v0.4h18v-0.3l1.7,0v0.3
				h8.1v-0.3l1.7,0v0.3h8.2v-0.2l1.7,0v0.2h0.3l-0.4-1.2l-1.6,0v-0.6l1.4,0l-0.7-2.2h-0.7l0-2.1l-8.1-24.2l-1.7,0l0-2.2h0.9
				l-0.7-2.2h-0.1v-0.4l-1.5-4.6C94.4,331.6,91.7,332.1,89.2,333.2z M70.8,370l-1.7,0l0-1.5l1.7,0L70.8,370z M70.8,366.4l-1.7,0
				l0-2.1l1.7,0L70.8,366.4z M70.8,362.2l-1.7,0l0-2.1l1.7,0L70.8,362.2z M70.8,358l-1.7,0l0-2.1l1.7,0L70.8,358z M70.8,353.8
				l-1.7,0l0-2.1l1.7,0L70.8,353.8z M90.4,370l-1.7,0v-0.6l1.7,0V370z M90.5,367l-1.7,0l0-2.4l1.7,0L90.5,367z M90.5,362.3l-1.7,0
				l0-2.4l1.7,0L90.5,362.3z M90.5,357.6l-1.7,0l0-2.4l1.7,0L90.5,357.6z M90.5,352.9l-1.7,0l0-2.4l1.7,0L90.5,352.9z M90.6,348.2
				l-1.7,0l0-2.4l1.7,0L90.6,348.2z M90.6,343.5l-1.7,0l0-2.4l1.7,0L90.6,343.5z M90.6,338.8l-1.7,0l0-2.4l1.7,0L90.6,338.8z
				 M98.6,343.3l1.7,0l0,2.2l-1.7,0L98.6,343.3z M98.6,347.7l1.7,0l0,2.2l-1.7,0L98.6,347.7z M98.6,352.1l1.7,0l0,2.2l-1.7,0
				L98.6,352.1z M98.6,356.5l1.7,0l0,2.2l-1.7,0L98.6,356.5z M98.5,361l1.7,0l0,2.2l-1.7,0L98.5,361z M98.5,365.4l1.7,0l0,2.2
				l-1.7,0L98.5,365.4z M98.5,369.8l1.7,0v0.3l-1.7,0L98.5,369.8z"/>
			<path class="st5" d="M55.2,379.3L55.2,379.3c0.1,0,0.1,0.1,0.2,0.1c0.1-0.4,0.1-0.9-0.1-1.3C55.3,378.5,55.2,378.9,55.2,379.3z"
				/>
			
				<rect x="147.8" y="313.1" transform="matrix(4.999937e-03 -1 1 4.999937e-03 -165.7785 461.3256)" class="st1" width="2.3" height="1.7"/>
			
				<rect x="147.8" y="317.6" transform="matrix(4.999937e-03 -1 1 4.999937e-03 -170.3085 465.7452)" class="st1" width="2.3" height="1.7"/>
			<polygon class="st1" points="109.1,367.4 108.4,365.3 108.4,367.4 			"/>
			<polygon class="st1" points="108.4,370.2 110.1,370.2 109.9,369.6 108.4,369.6 			"/>
			<polygon class="st1" points="98.7,341.1 100.3,341.1 99.6,338.9 98.7,338.9 			"/>
			
				<rect x="98.4" y="343.5" transform="matrix(5.270904e-03 -1 1 5.270904e-03 -245.4137 442.0837)" class="st1" width="2.2" height="1.7"/>
			<polygon class="st1" points="98.8,336.7 98.7,336.2 98.7,336.7 			"/>
			
				<rect x="98.4" y="348" transform="matrix(5.270904e-03 -1 1 5.270904e-03 -249.8585 446.459)" class="st1" width="2.2" height="1.7"/>
			
				<rect x="98.3" y="365.6" transform="matrix(5.270904e-03 -1 1 5.270904e-03 -267.6347 463.9583)" class="st1" width="2.2" height="1.7"/>
			
				<rect x="98.4" y="352.4" transform="matrix(5.270904e-03 -1 1 5.270904e-03 -254.3008 450.8329)" class="st1" width="2.2" height="1.7"/>
			
				<rect x="98.3" y="356.7" transform="matrix(4.999937e-03 -1 1 4.999937e-03 -258.6422 455.185)" class="st1" width="2.2" height="1.7"/>
			
				<rect x="99.2" y="369.1" transform="matrix(5.270904e-03 -1 1 5.270904e-03 -271.1159 467.3851)" class="st1" width="0.3" height="1.7"/>
			
				<rect x="98.3" y="361.2" transform="matrix(5.270904e-03 -1 1 5.270904e-03 -263.1904 459.5835)" class="st1" width="2.2" height="1.7"/>
			
				<rect x="88.6" y="336.7" transform="matrix(5.131223e-03 -1 1 5.131223e-03 -248.3045 425.6151)" class="st1" width="2.4" height="1.7"/>
			
				<rect x="88.5" y="341.4" transform="matrix(5.270904e-03 -1 1 5.270904e-03 -253.0485 430.2272)" class="st1" width="2.4" height="1.7"/>
			
				<rect x="88.5" y="350.9" transform="matrix(5.270904e-03 -1 1 5.270904e-03 -262.5121 439.5408)" class="st1" width="2.4" height="1.7"/>
			
				<rect x="88.5" y="346.1" transform="matrix(5.270904e-03 -1 1 5.270904e-03 -257.7793 434.883)" class="st1" width="2.4" height="1.7"/>
			
				<rect x="89.3" y="368.8" transform="matrix(5.131223e-03 -1 1 5.131223e-03 -280.534 457.3448)" class="st1" width="0.6" height="1.7"/>
			
				<rect x="88.4" y="360.2" transform="matrix(4.999937e-03 -1 1 4.999937e-03 -271.9081 448.8983)" class="st1" width="2.4" height="1.7"/>
			
				<rect x="88.4" y="365" transform="matrix(5.131223e-03 -1 1 5.131223e-03 -276.6929 453.5634)" class="st1" width="2.4" height="1.7"/>
			
				<rect x="88.5" y="355.6" transform="matrix(5.270904e-03 -1 1 5.270904e-03 -267.2419 444.1976)" class="st1" width="2.4" height="1.7"/>
			
				<rect x="68.9" y="351.9" transform="matrix(5.131223e-03 -1 1 5.131223e-03 -283.1521 420.9474)" class="st1" width="2.1" height="1.7"/>
			
				<rect x="68.9" y="360.2" transform="matrix(4.999937e-03 -1 1 4.999937e-03 -291.4621 429.1563)" class="st1" width="2.1" height="1.7"/>
			
				<rect x="68.9" y="356.1" transform="matrix(5.131223e-03 -1 1 5.131223e-03 -287.3546 425.0863)" class="st1" width="2.1" height="1.7"/>
			
				<rect x="69.1" y="368.3" transform="matrix(5.270904e-03 -1 1 5.270904e-03 -299.675 437.1553)" class="st1" width="1.5" height="1.7"/>
			
				<rect x="68.9" y="364.5" transform="matrix(5.131223e-03 -1 1 5.131223e-03 -295.7565 433.3569)" class="st1" width="2.1" height="1.7"/>
			<path class="st1" d="M110.1,371.4v-0.2l-1.7,0v0.2h-8.2v-0.3l-1.7,0v0.3h-8.1v-0.3l-1.7,0v0.3h-18V371l-1.7,0v0.4h-9.7
				c-1-4.4,1.5-9,3.8-12.6c2-3.1,4.3-6.1,6.6-9h1.1l0-1.1h-0.2c1.6-1.8,3.1-3.6,4.8-5.4c3.5-3.9,7.6-7.1,12.2-9.5
				c0.4-0.2,0.8-0.4,1.2-0.5v0.9l1.7,0l0-1l-1.5,0c2.5-1,5.3-1.6,8-1.5l-0.6-1.7c-3.4,0-6.7,0.8-9.7,2.3c-4.8,2.5-9,5.9-12.6,9.9
				c-4.7,4.8-8.9,10.1-12.6,15.7c-1.2,1.8-2.3,3.7-3.1,5.8c0.1-9.8-0.4-20.5-0.8-30.9c-0.5-11.8-1-24-0.7-34.8
				c1.5,1.9,3.2,3.9,3.3,4l1.5-1.3c0,0-3.6-4.2-5-6.2l-0.8-1.2l-0.8,1.2c-0.7,1.1-1.5,2.2-2.2,3.2c-0.7,1.1-1.4,2.1-2.1,3.2l1.6,1.1
				c0.9-1.2,1.7-2.5,2.5-3.7l0,0c-0.3,10.8,0.2,22.9,0.8,34.6c0.6,13,1.2,26.4,0.6,38c0,0.8,0.2,1.6,0.8,2.2
				c0.3,0.3,0.7,0.4,1.1,0.4c0.1,0,0.1,0,0.2,0l52.7,0l-0.7-2L110.1,371.4z"/>
			<path class="st1" d="M149.9,304.8l-1.6-0.6c-1.5,4.3-3.4,8.4-5.6,12.4l1.5,0.9C146.4,313.5,148.4,309.2,149.9,304.8z"/>
			<polygon class="st1" points="61.1,242 65.8,243.9 70.5,241.7 75.1,243.7 75.2,242 70.5,239.9 65.8,242.1 61.1,240.3 56.5,242.6 
				51.8,240.9 51.7,242.6 56.5,244.4 			"/>
			<path class="st1" d="M72.1,260.8c-2.2,0.5-4.5,0.8-6.8,0.8c-2.2-0.1-4.4-0.5-6.5-1c-2.2-0.6-4.5-0.9-6.8-1.1l-0.1,1.7
				c2.2,0.1,4.4,0.5,6.5,1c2.2,0.6,4.5,0.9,6.9,1.1c0.1,0,0.3,0,0.4,0c2.3-0.1,4.5-0.3,6.7-0.8c0.5-0.1,1-0.2,1.5-0.3l-0.6-1.7
				C72.9,260.7,72.5,260.7,72.1,260.8z"/>
			<path class="st1" d="M281.2,261.3c-2.5,0-5.1-0.2-7.6-0.6c-3.8-0.5-7.6-0.8-11.4-0.9c-3,0.1-6,0.3-8.9,0.8
				c-3.3,0.5-6.7,0.8-10,0.9c-3.2-0.1-6.4-0.4-9.5-1c-3.1-0.5-6.2-0.9-9.3-1c-2.5,0.1-5.1,0.3-7.6,0.8c-2.5,0.5-5,0.7-7.5,0.7
				c-2.7-0.1-5.4-0.5-8-1.2c-2.3-0.6-4.7-0.9-7.1-1.1c-3,0-6,0.2-9,0.7c-2,0.3-4.1,0.5-6.1,0.5c-0.7-0.2-1.3-0.5-1.9-0.9
				c-0.7-0.6-1.6-1-2.5-1.1c-1,0-2,0.3-2.8,0.9c-0.5,0.3-1.1,0.6-1.7,0.7c-0.7-0.1-1.3-0.4-1.9-0.8c-0.8-0.6-1.7-0.9-2.7-1h0
				c-1,0.1-2,0.6-2.8,1.2c-0.6,0.5-1.3,0.8-2,0.9c-0.7,0-1.5-0.2-2.1-0.6c-1-0.5-2-0.7-3.1-0.7c-1,0.2-1.9,0.6-2.7,1.2
				c-0.6,0.5-1.3,0.8-2.1,1c-2.1,0-4.2-0.2-6.2-0.7c-1.9-0.5-3.9-0.7-5.9-0.8c-2,0.1-4,0.3-6,0.7c-2,0.4-4,0.7-6.1,0.7
				c-1.8-0.1-3.6-0.5-5.4-1c-2.2-0.6-4.4-1-6.7-1c-1.4,0.1-2.8,0.4-4.2,1.1c-1.1,0.5-2.2,0.8-3.3,0.9c-1.2,0-2.4-0.3-3.5-0.7
				c-1.3-0.5-2.7-0.7-4.1-0.7c-1.3,0.2-2.6,0.6-3.8,1.2c-1.1,0.5-2.3,0.9-3.5,1c-2.4,0-4.7-0.2-7-0.7c-2.1-0.4-4.3-0.7-6.4-0.7
				c-0.2,0-0.3,0-0.5,0l1.5,1.8c1.7,0.1,3.5,0.3,5.2,0.7c2.4,0.5,4.9,0.7,7.4,0.7c1.4-0.1,2.8-0.5,4.1-1.2c1-0.5,2.1-0.9,3.2-1
				c1.2,0,2.4,0.3,3.5,0.7c1.3,0.5,2.7,0.7,4,0.7c1.3-0.1,2.7-0.5,3.9-1c1.1-0.5,2.3-0.8,3.5-0.9c2.1,0.1,4.2,0.4,6.2,1
				c1.9,0.5,3.8,0.9,5.8,1c2.2,0,4.3-0.2,6.5-0.7c1.9-0.4,3.8-0.6,5.7-0.7c1.9,0.1,3.7,0.3,5.5,0.8c2.2,0.5,4.4,0.8,6.7,0.8
				c1.1-0.2,2.1-0.6,2.9-1.3c0.6-0.5,1.3-0.8,2-1c0.8,0,1.5,0.2,2.2,0.6c0.9,0.4,1.9,0.7,2.9,0.7c1-0.1,2-0.6,2.8-1.2
				c0.6-0.4,1.2-0.8,2-0.9c0.7,0.1,1.3,0.4,1.8,0.8c0.8,0.6,1.7,0.9,2.7,1.1c0.9-0.1,1.8-0.4,2.6-0.9c0.5-0.4,1.2-0.6,1.9-0.7
				c0.6,0.2,1.2,0.4,1.7,0.8c0.8,0.6,1.7,1,2.7,1.2c2.2,0,4.3-0.1,6.5-0.5c2.9-0.5,5.8-0.7,8.7-0.7c2.3,0.1,4.5,0.5,6.8,1
				c2.7,0.6,5.5,1.1,8.3,1.2c2.6,0,5.2-0.3,7.8-0.7c2.4-0.4,4.9-0.7,7.3-0.8c3.1,0.1,6.1,0.5,9.1,1c3.2,0.6,6.5,0.9,9.8,1
				c3.4-0.1,6.9-0.4,10.3-0.9c2.9-0.5,5.8-0.7,8.7-0.8c3.7,0,7.5,0.3,11.2,0.8c2.6,0.4,5.2,0.6,7.8,0.6L281.2,261.3z"/>
			<path class="st1" d="M78.3,279.4c-0.9-0.7-1.9-1.1-3-1.4c-1.4-0.2-2.8,0-4,0.5c-0.6,0.2-1.1,0.3-1.7,0.5
				c-0.7,0.1-1.5,0.1-2.2-0.1c-0.7-0.1-1.5-0.2-2.3-0.2c-4.4,0.2-8.9,0.5-13.2,0.8l0.1,1.7c4.3-0.3,8.7-0.6,13.2-0.8
				c0.6,0,1.3,0,1.9,0.2c0.9,0.2,1.9,0.2,2.8,0.1c0.6-0.1,1.3-0.3,1.9-0.5c1-0.4,2.1-0.6,3.2-0.5c0.9,0.2,1.7,0.6,2.4,1.1
				c0.9,0.6,1.8,1.1,2.8,1.3c0.1,0,0.3,0,0.4,0.1l-0.7-2C79.3,280,78.8,279.7,78.3,279.4z"/>
			<path class="st1" d="M96.5,279.4c0.2,0,0.3,0.1,0.5,0.2c0.2,0.1,0.4,0.2,0.7,0.3c3.2,1.5,5.9,1,8.8,0.2c2.8-0.5,5.7,0,8.2,1.4
				c1.3,0.9,2.7,1.8,4.2,2.5c0.6,0.3,1.3,0.4,1.9,0.5c1.3,0,2.5-0.5,3.4-1.5c0.3-0.3,0.5-0.7,0.6-1.1c0.1-0.2,0.2-0.4,0.3-0.7
				c0.8-0.6,1.8-0.7,2.7-0.3c1.2,0.7,2.5,1.3,3.8,1.8c2.1,0.6,4.2,0,6.2-0.5l0.8-0.2c5.7-1.5,11.9-1.2,17.8-0.8
				c6.6,0.4,13.4,0.7,19.8-1.3l-0.5-1.6c-6.1,2-12.8,1.6-19.2,1.3c-6.1-0.3-12.4-0.7-18.3,0.9l-0.8,0.2c-1.8,0.5-3.6,1-5.2,0.6
				c-1.2-0.5-2.4-1.1-3.5-1.7c-1.5-0.8-3.4-0.6-4.7,0.5l-0.1,0.1c-0.3,0.3-0.5,0.7-0.6,1.1c-0.1,0.2-0.2,0.5-0.3,0.7
				c-0.9,0.9-2.2,1.1-3.3,0.6c-1.4-0.7-2.7-1.5-4-2.4c-2.9-1.6-6.3-2.2-9.5-1.6c-2.7,0.7-5,1.2-7.7-0.1l-0.2-0.1
				c-0.2,0-0.3-0.1-0.5-0.2c-0.3-0.1-0.5-0.2-0.8-0.3c-1-0.1-2.1,0.1-3,0.7l1.1,1.3C95.4,279.5,95.9,279.4,96.5,279.4z"/>
			<path class="st1" d="M56,376.1l-0.2-0.1c-0.3-0.2-0.7-0.3-1.1-0.1c-0.6,0.1-1,0.6-1,1.1c-0.3,1.1-0.4,2.3-0.2,3.4l0.4-0.1
				c0.2,0.2,0.4,0.5,0.7,0.6c0.3,0.2,0.6,0.3,0.9,0.3c0.1,0,0.3,0,0.4-0.1c0.7-0.2,1.2-0.9,1.1-1.6c0.3-1.2-0.1-2.5-0.9-3.4
				L56,376.1z M55.4,379.4c0-0.1-0.1-0.1-0.1-0.2l-0.1,0c0-0.4,0-0.8,0.1-1.1C55.5,378.5,55.5,379,55.4,379.4z"/>
			<path class="st1" d="M181.4,326.7c2.8-3.3,4.9-5.9,10.3-5.3l0.1,0.3l1.6-0.8l-0.5-1.1l-0.5-0.1c-6.7-0.9-9.5,2.6-12.3,5.9
				c-2.6,3-5.2,6.2-10.9,7l2.2,1.3C176.5,332.6,179.1,329.5,181.4,326.7z"/>
			<path class="st6" d="M91.4,281.1c-0.6-0.1-1.3-0.2-1.9-0.4c-1.3-0.3-2.7,0.2-4.3,0.7c-1.5,0.6-3.1,0.9-4.7,0.8l16,47.7
				c2.2,0,4.3,0.3,6.4,0.9c2.4,1,4.8,2.2,6.9,3.8c3.3,2.2,6.5,4.2,10.2,4.2c4.8-0.1,8.9-4,11.6-6.9c4.2-4.6,7.9-9.8,11-15.3
				l-33.2-19.9l-14.4-17c-0.2,0.1-0.4,0.2-0.5,0.3C93.6,280.8,92.5,281.1,91.4,281.1z"/>
			<path class="st6" d="M140.3,324.9h-0.8c-2,2.9-4.2,5.6-6.6,8.2c-0.9,1-1.9,2-2.9,2.9l0,1.1l-1.3,0c-2.4,2-5.4,3.2-8.5,3.4
				c0,0,0,0-0.1,0v0.4l-1.7,0v-0.5c-2.9-0.6-5.6-1.7-8-3.5v0.2l-1.7,0l0-1.1h0.2c-2-1.4-4.1-2.6-6.4-3.5c-0.7-0.2-1.3-0.4-2-0.5v0.4
				l-1.7,0v-0.7c-0.5-0.1-1-0.1-1.6-0.1l1.5,4.6l0-1.8l1.7,0l0,2.2l-1.6,0l0.7,2.2h0.8l0,2.2h-0.1l8.1,24.2v-0.1l1.7,0l0,2.2h-1
				l0.7,2.2h0.3v0.6h-0.1l0.4,1.2h7.7v-0.2l1.7,0v0.2h8.2v-0.1l1.7,0v0.1h8.5v-0.1l1.7,0v0.1h7.7v0l1.7,0v0h17.3l-0.1-0.1
				c-0.9-0.5-1.8-1-2.7-1.5c-0.5-0.3-0.7-0.9-0.4-1.3c0.3-0.5,0.9-0.7,1.3-0.4c0.9,0.5,1.8,1,2.7,1.5c1.2,0.6,2.3,1.3,3.5,1.9
				l1.7,0.9l-1.7,0.9c-2.4,1.2-4.6,2.7-6.7,4.4c-0.2,0.2-0.5,0.4-0.9,0.4l0,0h-0.4l-0.4-0.3c-0.3-0.3-0.4-0.9-0.2-1.3l0.9-0.6
				c1.1-0.9,2.3-1.7,3.5-2.4l-55.9,0l8.7,25.7l133.1,1.2l-30.8-119.1l-32.4,63.7l-18.4-11c-1.3,0.3-2.7,0.5-4.1,0.6l-6-0.3l0.1-1.7
				l6,0.3c0.7,0,1.3-0.1,1.9-0.2l-25.1-15c-1.2,2.1-2.5,4.2-3.8,6.2L140.3,324.9z M110.2,363.1l-1.7,0l0-2.2l1.7,0L110.2,363.1z
				 M110.2,358.7l-1.7,0l0-2.2l1.7,0L110.2,358.7z M110.2,354.4l-1.7,0l0-2.2l1.7,0L110.2,354.4z M110.2,350l-1.7,0l0-2.2l1.7,0
				L110.2,350z M110.3,345.6l-1.7,0l0-2.2l1.7,0L110.3,345.6z M110.3,341.3l-1.7,0l0-2.2l1.7,0L110.3,341.3z M119.9,370.2l-1.7,0v-1
				l1.7,0L119.9,370.2z M119.9,367l-1.7,0l0-2.2l1.7,0L119.9,367z M120,362.6l-1.7,0l0-2.2l1.7,0L120,362.6z M120,358.3l-1.7,0
				l0-2.2l1.7,0L120,358.3z M120,353.9l-1.7,0l0-2.2l1.7,0L120,353.9z M120,349.5l-1.7,0l0-2.2l1.7,0L120,349.5z M120.1,345.1
				l-1.7,0l0-2.2l1.7,0L120.1,345.1z M129.8,370.3l-1.7,0v-0.7l1.7,0L129.8,370.3z M129.8,367.4l-1.7,0l0-2.2l1.7,0L129.8,367.4z
				 M129.9,363.1l-1.7,0l0-2.2l1.7,0L129.9,363.1z M129.9,358.7l-1.7,0l0-2.2l1.7,0L129.9,358.7z M129.9,354.3l-1.7,0l0-2.2l1.7,0
				L129.9,354.3z M129.9,349.9l-1.7,0l0-2.2l1.7,0L129.9,349.9z M130,345.6l-1.7,0l0-2.2l1.7,0L130,345.6z M130,341.2l-1.7,0l0-2.2
				l1.7,0L130,341.2z M140.1,367.9l-1.7,0l0-2.4l1.7,0L140.1,367.9z M140.1,363.1l-1.7,0l0-2.4l1.7,0L140.1,363.1z M140.1,358.3
				l-1.7,0l0-2.4l1.7,0L140.1,358.3z M140.2,353.5l-1.7,0l0-2.4l1.7,0L140.2,353.5z M140.2,348.6l-1.7,0l0-2.4l1.7,0L140.2,348.6z
				 M140.2,343.8l-1.7,0l0-2.4l1.7,0L140.2,343.8z M140.2,339l-1.7,0l0-2.4l1.7,0L140.2,339z M140.3,334.2l-1.7,0l0-2.4l1.7,0
				L140.3,334.2z M140.3,329.4l-1.7,0l0-2.4l1.7,0L140.3,329.4z M148,321.9l1.7,0l0,2.3l-1.7,0L148,321.9z M148,326.5l1.7,0l0,2.3
				l-1.7,0L148,326.5z M148,331l1.7,0l0,2.3l-1.7,0L148,331z M148,335.5l1.7,0l0,2.3l-1.7,0L148,335.5z M147.9,340.1l1.7,0l0,2.3
				l-1.7,0L147.9,340.1z M147.9,344.6l1.7,0l0,2.3l-1.7,0L147.9,344.6z M147.9,349.1l1.7,0l0,2.3l-1.7,0L147.9,349.1z M147.9,353.7
				l1.7,0l0,2.3l-1.7,0L147.9,353.7z M147.9,358.2l1.7,0l0,2.3l-1.7,0L147.9,358.2z M147.8,362.7l1.7,0l0,2.3l-1.7,0L147.8,362.7z
				 M147.8,367.3l1.7,0l0,2.3l-1.7,0L147.8,367.3z"/>
			<path class="st6" d="M73.9,262.2l6,18c0.2,0.1,0.4,0.1,0.6,0.2c1.4,0.1,2.9-0.1,4.2-0.7c1.7-0.6,3.4-1.2,5.3-0.7
				c0.5,0.2,1,0.3,1.6,0.3c0.7-0.1,1.4-0.3,2-0.8l0.3-0.1l-14.2-16.7c-0.3,0-0.7,0-1,0C77.1,261.8,75.5,261.9,73.9,262.2z"/>
			<path class="st6" d="M69.9,250.3l3.5,10.3c1.6-0.3,3.2-0.5,4.8-0.6L69.9,250.3z"/>
			
				<rect x="147.7" y="331.3" transform="matrix(5.131223e-03 -1 1 5.131223e-03 -184.0452 479.2784)" class="st7" width="2.3" height="1.7"/>
			
				<rect x="147.7" y="331.3" transform="matrix(5.131223e-03 -1 1 5.131223e-03 -184.0452 479.2784)" class="st7" width="2.3" height="1.7"/>
			
				<rect x="147.7" y="326.7" transform="matrix(5.270904e-03 -1 1 5.270904e-03 -179.5108 474.7502)" class="st7" width="2.3" height="1.7"/>
			
				<rect x="147.7" y="326.7" transform="matrix(5.270904e-03 -1 1 5.270904e-03 -179.5108 474.7502)" class="st7" width="2.3" height="1.7"/>
			
				<rect x="147.7" y="335.8" transform="matrix(5.270904e-03 -1 1 5.270904e-03 -188.6196 483.7167)" class="st7" width="2.3" height="1.7"/>
			
				<rect x="147.7" y="335.8" transform="matrix(5.270904e-03 -1 1 5.270904e-03 -188.6196 483.7167)" class="st7" width="2.3" height="1.7"/>
			
				<rect x="147.8" y="322.2" transform="matrix(5.270904e-03 -1 1 5.270904e-03 -174.955 470.2663)" class="st1" width="2.3" height="1.7"/>
			
				<rect x="147.8" y="322.2" transform="matrix(5.270904e-03 -1 1 5.270904e-03 -174.955 470.2663)" class="st7" width="2.3" height="1.7"/>
			
				<rect x="147.7" y="340.3" transform="matrix(5.131223e-03 -1 1 5.131223e-03 -193.1547 488.248)" class="st7" width="2.3" height="1.7"/>
			
				<rect x="147.7" y="340.3" transform="matrix(5.131223e-03 -1 1 5.131223e-03 -193.1547 488.248)" class="st7" width="2.3" height="1.7"/>
			
				<rect x="147.6" y="358.5" transform="matrix(5.131223e-03 -1 1 5.131223e-03 -211.3722 506.1848)" class="st7" width="2.3" height="1.7"/>
			
				<rect x="147.6" y="358.5" transform="matrix(5.131223e-03 -1 1 5.131223e-03 -211.3722 506.1848)" class="st7" width="2.3" height="1.7"/>
			
				<rect x="147.6" y="344.9" transform="matrix(5.270904e-03 -1 1 5.270904e-03 -197.7294 492.6824)" class="st7" width="2.3" height="1.7"/>
			
				<rect x="147.6" y="344.9" transform="matrix(5.270904e-03 -1 1 5.270904e-03 -197.7294 492.6824)" class="st7" width="2.3" height="1.7"/>
			
				<rect x="147.6" y="349.4" transform="matrix(5.270904e-03 -1 1 5.270904e-03 -202.2843 497.1672)" class="st7" width="2.3" height="1.7"/>
			
				<rect x="147.6" y="349.4" transform="matrix(5.270904e-03 -1 1 5.270904e-03 -202.2843 497.1672)" class="st7" width="2.3" height="1.7"/>
			
				<rect x="147.6" y="353.9" transform="matrix(5.270904e-03 -1 1 5.270904e-03 -206.8392 501.65)" class="st7" width="2.3" height="1.7"/>
			
				<rect x="147.6" y="353.9" transform="matrix(5.270904e-03 -1 1 5.270904e-03 -206.8392 501.65)" class="st7" width="2.3" height="1.7"/>
			
				<rect x="138.1" y="341.8" transform="matrix(5.131223e-03 -1 1 5.131223e-03 -203.9954 480.213)" class="st7" width="2.4" height="1.7"/>
			
				<rect x="138.1" y="341.8" transform="matrix(5.131223e-03 -1 1 5.131223e-03 -203.9954 480.213)" class="st7" width="2.4" height="1.7"/>
			
				<rect x="138.1" y="336.9" transform="matrix(4.999937e-03 -1 1 4.999937e-03 -199.0847 475.3736)" class="st7" width="2.4" height="1.7"/>
			
				<rect x="138.1" y="336.9" transform="matrix(4.999937e-03 -1 1 4.999937e-03 -199.0847 475.3736)" class="st7" width="2.4" height="1.7"/>
			
				<rect x="138.1" y="346.6" transform="matrix(5.270904e-03 -1 1 5.270904e-03 -208.8463 484.9225)" class="st7" width="2.4" height="1.7"/>
			
				<rect x="138.1" y="346.6" transform="matrix(5.270904e-03 -1 1 5.270904e-03 -208.8463 484.9225)" class="st7" width="2.4" height="1.7"/>
			
				<rect x="138.2" y="332.2" transform="matrix(5.131223e-03 -1 1 5.131223e-03 -194.3316 470.6979)" class="st7" width="2.4" height="1.7"/>
			
				<rect x="138.2" y="332.2" transform="matrix(5.131223e-03 -1 1 5.131223e-03 -194.3316 470.6979)" class="st7" width="2.4" height="1.7"/>
			
				<rect x="138.2" y="327.3" transform="matrix(5.270904e-03 -1 1 5.270904e-03 -189.5189 465.8953)" class="st7" width="2.4" height="1.7"/>
			
				<rect x="138.2" y="327.3" transform="matrix(5.270904e-03 -1 1 5.270904e-03 -189.5189 465.8953)" class="st7" width="2.4" height="1.7"/>
			
				<rect x="138" y="365.8" transform="matrix(5.131223e-03 -1 1 5.131223e-03 -228.1538 503.9991)" class="st7" width="2.4" height="1.7"/>
			
				<rect x="138" y="365.8" transform="matrix(5.131223e-03 -1 1 5.131223e-03 -228.1538 503.9991)" class="st7" width="2.4" height="1.7"/>
			
				<rect x="138.1" y="351.3" transform="matrix(4.999937e-03 -1 1 4.999937e-03 -213.5756 489.6462)" class="st7" width="2.4" height="1.7"/>
			
				<rect x="138.1" y="351.3" transform="matrix(4.999937e-03 -1 1 4.999937e-03 -213.5756 489.6462)" class="st7" width="2.4" height="1.7"/>
			
				<rect x="138.1" y="356.2" transform="matrix(5.270904e-03 -1 1 5.270904e-03 -218.5099 494.4351)" class="st7" width="2.4" height="1.7"/>
			
				<rect x="138.1" y="356.2" transform="matrix(5.270904e-03 -1 1 5.270904e-03 -218.5099 494.4351)" class="st7" width="2.4" height="1.7"/>
			
				<rect x="128" y="348" transform="matrix(5.131223e-03 -1 1 5.131223e-03 -220.4141 476.1112)" class="st7" width="2.2" height="1.7"/>
			
				<rect x="128" y="348" transform="matrix(5.131223e-03 -1 1 5.131223e-03 -220.4141 476.1112)" class="st7" width="2.2" height="1.7"/>
			
				<rect x="127.9" y="356.7" transform="matrix(5.131223e-03 -1 1 5.131223e-03 -229.2055 484.7644)" class="st7" width="2.2" height="1.7"/>
			
				<rect x="127.9" y="356.7" transform="matrix(5.131223e-03 -1 1 5.131223e-03 -229.2055 484.7644)" class="st7" width="2.2" height="1.7"/>
			
				<rect x="128" y="343.5" transform="matrix(4.999937e-03 -1 1 4.999937e-03 -215.9679 471.7701)" class="st7" width="2.2" height="1.7"/>
			
				<rect x="128" y="343.5" transform="matrix(4.999937e-03 -1 1 4.999937e-03 -215.9679 471.7701)" class="st7" width="2.2" height="1.7"/>
			
				<rect x="127.9" y="365.5" transform="matrix(5.131223e-03 -1 1 5.131223e-03 -237.9954 493.421)" class="st7" width="2.2" height="1.7"/>
			
				<rect x="127.9" y="365.5" transform="matrix(5.131223e-03 -1 1 5.131223e-03 -237.9954 493.421)" class="st7" width="2.2" height="1.7"/>
			
				<rect x="128.6" y="369" transform="matrix(4.999937e-03 -1 1 4.999937e-03 -241.5404 496.9152)" class="st7" width="0.7" height="1.7"/>
			
				<rect x="128" y="339.1" transform="matrix(4.999937e-03 -1 1 4.999937e-03 -211.543 467.3775)" class="st7" width="2.2" height="1.7"/>
			
				<rect x="128" y="339.1" transform="matrix(4.999937e-03 -1 1 4.999937e-03 -211.543 467.3775)" class="st7" width="2.2" height="1.7"/>
			
				<rect x="128" y="352.3" transform="matrix(5.270904e-03 -1 1 5.270904e-03 -224.8275 480.3893)" class="st7" width="2.2" height="1.7"/>
			
				<rect x="128" y="352.3" transform="matrix(5.270904e-03 -1 1 5.270904e-03 -224.8275 480.3893)" class="st7" width="2.2" height="1.7"/>
			
				<rect x="118.1" y="351.9" transform="matrix(5.270904e-03 -1 1 5.270904e-03 -234.232 470.0501)" class="st7" width="2.2" height="1.7"/>
			
				<rect x="118.1" y="351.9" transform="matrix(5.270904e-03 -1 1 5.270904e-03 -234.232 470.0501)" class="st7" width="2.2" height="1.7"/>
			
				<rect x="118" y="365.1" transform="matrix(5.131223e-03 -1 1 5.131223e-03 -247.4593 483.1393)" class="st7" width="2.2" height="1.7"/>
			
				<rect x="118" y="365.1" transform="matrix(5.131223e-03 -1 1 5.131223e-03 -247.4593 483.1393)" class="st7" width="2.2" height="1.7"/>
			
				<rect x="118.1" y="347.5" transform="matrix(5.131223e-03 -1 1 5.131223e-03 -229.8001 465.7539)" class="st7" width="2.2" height="1.7"/>
			
				<rect x="118.1" y="347.5" transform="matrix(5.131223e-03 -1 1 5.131223e-03 -229.8001 465.7539)" class="st7" width="2.2" height="1.7"/>
			
				<rect x="118.1" y="343" transform="matrix(4.999937e-03 -1 1 4.999937e-03 -225.3024 461.33)" class="st7" width="2.2" height="1.7"/>
			
				<rect x="118.1" y="343" transform="matrix(4.999937e-03 -1 1 4.999937e-03 -225.3024 461.33)" class="st7" width="2.2" height="1.7"/>
			
				<rect x="118" y="356.3" transform="matrix(5.270904e-03 -1 1 5.270904e-03 -238.6467 474.3965)" class="st7" width="2.2" height="1.7"/>
			
				<rect x="118" y="356.3" transform="matrix(5.270904e-03 -1 1 5.270904e-03 -238.6467 474.3965)" class="st7" width="2.2" height="1.7"/>
			
				<rect x="108.2" y="352.3" transform="matrix(4.999937e-03 -1 1 4.999937e-03 -244.3707 460.731)" class="st7" width="2.2" height="1.7"/>
			
				<rect x="108.2" y="352.3" transform="matrix(4.999937e-03 -1 1 4.999937e-03 -244.3707 460.731)" class="st7" width="2.2" height="1.7"/>
			
				<rect x="108.3" y="343.6" transform="matrix(4.999937e-03 -1 1 4.999937e-03 -235.6209 452.1167)" class="st7" width="2.2" height="1.7"/>
			
				<rect x="108.3" y="343.6" transform="matrix(4.999937e-03 -1 1 4.999937e-03 -235.6209 452.1167)" class="st7" width="2.2" height="1.7"/>
			
				<rect x="108.3" y="348" transform="matrix(5.131223e-03 -1 1 5.131223e-03 -240.0807 456.4987)" class="st7" width="2.2" height="1.7"/>
			
				<rect x="108.3" y="348" transform="matrix(5.131223e-03 -1 1 5.131223e-03 -240.0807 456.4987)" class="st7" width="2.2" height="1.7"/>
			
				<rect x="108.3" y="339.3" transform="matrix(5.131223e-03 -1 1 5.131223e-03 -231.3296 447.8815)" class="st7" width="2.2" height="1.7"/>
			
				<rect x="108.3" y="339.3" transform="matrix(5.131223e-03 -1 1 5.131223e-03 -231.3296 447.8815)" class="st7" width="2.2" height="1.7"/>
			
				<rect x="108.2" y="356.7" transform="matrix(5.131223e-03 -1 1 5.131223e-03 -248.8324 465.1143)" class="st7" width="2.2" height="1.7"/>
			
				<rect x="108.2" y="356.7" transform="matrix(5.131223e-03 -1 1 5.131223e-03 -248.8324 465.1143)" class="st7" width="2.2" height="1.7"/>
			<polygon class="st8" points="110.2,367.4 110.2,365.2 108.4,365.2 108.4,365.3 109.1,367.4 			"/>
			<polygon class="st1" points="110.1,370.2 110.1,369.6 109.9,369.6 110.1,370.2 			"/>
			<polygon class="st9" points="110.1,370.2 110.1,369.6 109.9,369.6 110.1,370.2 			"/>
			<polygon class="st1" points="100.4,341.1 100.4,338.9 99.6,338.9 100.3,341.1 			"/>
			<polygon class="st9" points="100.4,341.1 100.4,338.9 99.6,338.9 100.3,341.1 			"/>
			<polygon class="st7" points="100.4,336.7 100.4,334.5 98.7,334.4 98.7,336.2 98.8,336.7 			"/>
			<path class="st7" d="M163.5,375.8l-0.9,0.6c-0.2,0.4-0.2,1,0.2,1.3l0.4,0.3h0.4l0,0c0.3,0,0.6-0.1,0.9-0.4
				c2.1-1.7,4.3-3.1,6.7-4.4l1.7-0.9l-1.7-0.9c-1.2-0.6-2.3-1.3-3.5-1.9c-0.9-0.5-1.8-1-2.7-1.5c-0.5-0.3-1.1-0.1-1.3,0.4
				c-0.3,0.5-0.1,1.1,0.4,1.3c0.9,0.5,1.8,1,2.7,1.5l0.1,0.1h-17.3v0l-1.7,0v0h-7.7v-0.1l-1.7,0v0.1h-8.5v-0.1l-1.7,0v0.1h-8.2v-0.2
				l-1.7,0v0.2h-7.7l0.7,2l55.9,0C165.8,374.1,164.7,375,163.5,375.8z"/>
			<path class="st7" d="M120.1,338.8c-3.7,0.1-6.9-2-10.2-4.2c-2.2-1.5-4.5-2.8-6.9-3.8c-2.1-0.6-4.2-0.9-6.4-0.9l0.6,1.7
				c0.5,0,1,0,1.6,0.1v0.7l1.7,0V332c0.7,0.1,1.3,0.3,2,0.5c2.3,0.9,4.4,2.1,6.4,3.5h-0.2l0,1.1l1.7,0v-0.2c2.4,1.7,5.1,2.9,8,3.5
				v0.5l1.7,0v-0.4c0,0,0,0,0.1,0c3.1-0.2,6.1-1.4,8.5-3.4l1.3,0l0-1.1c1-0.9,2-1.9,2.9-2.9c2.4-2.6,4.6-5.3,6.6-8.2h0.8v-1.1
				c1.4-2,2.7-4.1,3.8-6.2l-1.5-0.9c-3.1,5.5-6.7,10.6-11,15.3C129,334.8,124.9,338.7,120.1,338.8z"/>
			<path class="st7" d="M120.1,338.8c-3.7,0.1-6.9-2-10.2-4.2c-2.2-1.5-4.5-2.8-6.9-3.8c-2.1-0.6-4.2-0.9-6.4-0.9l0.6,1.7
				c0.5,0,1,0,1.6,0.1v0.7l1.7,0V332c0.7,0.1,1.3,0.3,2,0.5c2.3,0.9,4.4,2.1,6.4,3.5h-0.2l0,1.1l1.7,0v-0.2c2.4,1.7,5.1,2.9,8,3.5
				v0.5l1.7,0v-0.4c0,0,0,0,0.1,0c3.1-0.2,6.1-1.4,8.5-3.4l1.3,0l0-1.1c1-0.9,2-1.9,2.9-2.9c2.4-2.6,4.6-5.3,6.6-8.2h0.8v-1.1
				c1.4-2,2.7-4.1,3.8-6.2l-1.5-0.9c-3.1,5.5-6.7,10.6-11,15.3C129,334.8,124.9,338.7,120.1,338.8z"/>
			<path class="st7" d="M73.3,260.6l0.6,1.7c1.6-0.3,3.2-0.5,4.8-0.5c0.3,0,0.7,0,1,0l-1.5-1.8C76.6,260.1,74.9,260.3,73.3,260.6z"
				/>
			<path class="st7" d="M91.6,279.4c-0.5-0.1-1.1-0.2-1.6-0.3c-1.8-0.5-3.6,0.1-5.3,0.7c-1.3,0.6-2.7,0.8-4.2,0.7
				c-0.2-0.1-0.4-0.1-0.6-0.2l0.7,2c1.6,0.1,3.2-0.2,4.7-0.8c1.5-0.5,3-1,4.3-0.7c0.6,0.2,1.2,0.3,1.9,0.4c1.1,0,2.1-0.4,3-1
				c0.2-0.1,0.4-0.2,0.5-0.3l-1.1-1.3l-0.3,0.1C93,279.1,92.3,279.3,91.6,279.4z"/>
			<path class="st1" d="M161.4,332.4l-0.1,1.7l6,0.3c1.4,0,2.8-0.2,4.1-0.6l-2.2-1.3c-0.6,0.1-1.2,0.1-1.9,0.2L161.4,332.4z"/>
			<path class="st9" d="M161.4,332.4l-0.1,1.7l6,0.3c1.4,0,2.8-0.2,4.1-0.6l-2.2-1.3c-0.6,0.1-1.2,0.1-1.9,0.2L161.4,332.4z"/>
			<path class="st8" d="M105.2,297.2c1.4-1.8,3-3.6,4.6-5.2c1.1-1,2.4-2.1,3.8-1.8c0.4,1.3-0.5,2.6-1.3,3.7
				c-1.6,2.4-3.6,4.4-5.9,6.1C102.5,302.6,103.2,299.7,105.2,297.2z"/>
			<path class="st10" d="M111.7,294.5c-0.8,0.8-1.5,1.6-2.3,2.3c-0.8,0.8-0.8,2.3-2,2.3c-0.7,0-2-1.6-3.4-3.2l-0.3-0.4
				c-0.7-0.8-1.3-1.5-1.9-2.1c-0.1-0.1-0.2-0.2-0.4-0.3c-1.4-1.3-3.2-2.2-4.6-3.5c-1.7-1.7-3.2-3.8-4.3-6c0-0.1-0.1-0.1-0.1-0.2
				c-2.6-4.6-5.1-9.2-6.5-14.2v0c0-0.2-0.1-0.4-0.2-0.6l0.4,0.2l5.9,3.1c0.7,0.5,1.6,0.7,2.5,0.6c1.4-0.3,1.9-2.1,2-3.5
				c0-0.2,0-0.4,0-0.5c0-0.2,0-0.3,0-0.5c-0.4-4.7-3.9-10-7.4-13.1c3.8,0.5,9.2,2.5,12.7,4.1c2.1,0.8,3.9,2.1,5.4,3.8
				c2.8,3.4,2.8,8.1,3.2,12.3c0,2.2,0.1,4.5,0.4,6.7c0.4,2.1,1.1,4.1,2,6c0.1,0.2,0.2,0.4,0.3,0.6s0.2,0.4,0.3,0.6
				c0.3,0.6,0.6,1.2,0.8,1.8C114.3,292.6,112.7,293.4,111.7,294.5z"/>
			<path id="Path_37316" class="st4" d="M289.3,206.2c-0.1-3-0.5-6.1-1.2-9c-3-11.1-10-22.3-22.1-24.6c-9.7-1.7-19.6,2-25.7,9.8
				c-3.7,4.8-5.6,10.7-7.1,16.6c-4,16.8-5.8,34.4,7.2,53.6c1.4,2.1,7,3.9,8.2,6.1c3.1,5.3-1.7,8.1,3.2,11.9
				c8.8,0.7,17.5,1.4,26.3,0.6c4.4-0.4,8.7-1.1,13.1-1.3c4.6-0.2,9.2,0.2,13.6,1.2l6,9.8c3.8-0.9,6.1-4.8,6.9-8.5
				c1.4-6.3-0.2-12.9-3.1-18.7c-2.3-4.7-5.3-8.9-9-12.6c-3.8-3.8-7.6-6-10.3-10.7c-2.5-4.4-4.3-9.2-5.3-14.2
				C289.6,212.9,289.3,209.6,289.3,206.2z"/>
			<path class="st1" d="M228.6,310.7c0.1,9.4,1.5,19.1,1,28.5c-0.3,6.7-9.5,14.3-14.3,18.6c-3,2.9-6.5,5.3-10.4,7.1
				c-4.2,1.7-8.8,2.1-13.3,2.1c-43.8,0.3-89.5-64.9-87.5-66.4c3.1-2.3,8-7.2,9.9-10.6l30.4,19.4c10.2,6.6,19.2,14.5,32,8.7
				c2.3-1,4.3-2.6,6.5-3.8c15.4-9,36.5-52.3,42.3-57.6c3.3-3,4.5-5.9,12.4-5.5C230,270.1,228.4,290.1,228.6,310.7z"/>
			<path class="st11" d="M216.9,357.4c0-3.2-1-6.1-1.7-9.2c-4.9-22.5-2.4-46,7-67.1c1.5,10,3.7,19.8,6.4,29.6
				c0.1,10.9,0.7,22,1.2,33.1C226.2,349.3,216.9,358.3,216.9,357.4z"/>
			<path id="Path_37319" class="st1" d="M347.5,399.2c-1.6,0.1-3.2,0.2-4.8,0.3c0.1-0.1,0.1-0.2,0.2-0.3c-14,0.1-28,0.2-41.9,0.3
				c-11.1,0.1-22.3,0.2-33.4,0.3c-8.4,0.1-21.3,2.5-28.4-3.3c-2.3-2.1-4.2-4.5-5.6-7.3c-10.1-18-11.7-38.5-13.8-58.6
				c-2.3-22-0.4-42.4,3.3-64.1c0.8-4.7,1.8-9.8,5.4-13c3.4-3,8.3-3.6,12.8-4c14.8-1.3,29.5-2.5,44.3-3.8c8.9-0.8,22.6,4.4,25.8,11.5
				c7.5,6.1,3.3,12.3,2.2,21.9c-2.8,24.6,3.4,48.9,12.8,72.7c5.7,14.5,12.6,28.8,19.3,43.1C345.6,395.1,347.5,399.2,347.5,399.2z"/>
			<path class="st10" d="M272.7,246.8c-1.8,6.2-6.5,11.8-12.7,13.3c-0.4,0.1-0.9,0.2-1.3,0.2c-1.4,0.2-2.9,0.2-4.4-0.1
				c-1.5-0.3-3-0.8-4.3-1.4c-3.7-1.7-5.9-5.5-5.4-9.5c0.4,0,0.8-0.1,1.1-0.1c3.1-0.6,5.4-2.9,5.3-4.4c0-0.7-0.1-1.4-0.1-2.1
				c0-0.5,0-0.9-0.1-1.4c-0.1-2.1-0.2-4.2-0.2-6.3c0-0.8,0-1.5,0-2.3c0-1,0.1-2,0.2-2.9c0.1-1.4,0.3-2.9,0.6-4.3
				c5.5,0,10.7-2.2,14.6-6.1c-0.5,1.7-1.1,3.5-1.6,5.3c-0.3,1.1-0.6,2.2-0.9,3.4c-0.3,1.2-0.5,2.5-0.7,3.7c-0.3,2.2-0.5,4.5-0.4,6.7
				c0,0.1,0,0.2,0,0.4c0.1,2.3,0.6,4.5,1.5,6.6C264.2,246.1,270.6,247.1,272.7,246.8z"/>
			<path class="st12" d="M264.4,224.6c-0.3,0.9-0.5,1.9-0.7,2.8v0c-0.1,1-0.3,2.1-0.6,3c-0.8,2.2-1.9,4.2-3.3,6
				c-1,1.7-2.5,3.1-4.3,4c-3,1.2-4.1,0-4.6-1.8c-0.2-1.2-0.3-2.5-0.3-3.8c0-0.8,0-1.5,0-2.3c0-1,0.1-1.9,0.2-2.9
				C255.7,229.4,260.4,227.6,264.4,224.6z"/>
			<path class="st10" d="M271.1,217.6c-1.7,3.3-4.1,6.3-6.8,8.8c-3,2.7-6.5,4.9-10.3,6.3c-3.7,1.3-7.7,1.9-11.6,1.7
				c-0.3-0.3-0.7-0.7-1.1-1.2c-5.4-6-6.8-13.6-7.1-18.3c-0.1-1.3-0.1-2.6-0.1-3.9c0-0.5,0.1-1,0.1-1.5c0.1-0.8,0.2-1.6,0.3-2.5
				c0,0,0-0.1,0-0.1c0.1-0.3,0.1-0.6,0.2-0.9c0.2-0.9,0.4-1.9,0.7-2.8c0.4-1.3,0.9-2.5,1.4-3.8c0.2-0.5,0.4-0.9,0.6-1.4
				c0.3-0.7,0.7-1.4,1.1-2c0.3-0.6,0.6-1.1,0.9-1.5l4.3-1.7l0.5-0.2c1-0.4,1.9-0.7,2.9-1.1c0.2-0.1,0.4-0.2,0.7-0.3c0,0,0,0,0,0
				c0.4-0.1,0.7-0.3,1.1-0.4l5.6-2.2c0.9,1.1,1.7,2.3,2.5,3.5c4.2,5.9,7.8,12.2,10.9,18.7C269.1,213.1,270.1,215.3,271.1,217.6z"/>
			<path class="st12" d="M247.5,192.7c0,0.1-0.1,0.3-0.1,0.4c-1,2.1-2.6,4.2-3.8,6.3c-1.7,3.2-4.2,7.4-7.3,9.5
				c-0.5,0.3-1.6,1.1-2.1,0.7c0.1-0.8,0.2-1.6,0.3-2.5c0,0,0-0.1,0-0.1c0.1-0.3,0.1-0.6,0.2-0.9c0.2-0.9,0.4-1.9,0.7-2.8
				c0.4-1.3,0.9-2.5,1.4-3.8c0.2-0.5,0.4-0.9,0.6-1.4c0.3-0.7,0.7-1.4,1.1-2c0.3-0.6,0.6-1.1,0.9-1.5l4.3-1.7
				C244.9,192.4,248.1,190.8,247.5,192.7z"/>
			<path class="st1" d="M100.7,270.4c-0.1,3.1-3.1,7.4-6.1,6.5c-1-0.4-1.9-1-2.8-1.7c-2.2-2-4.3-4.2-6.2-6.6
				c-3.4-4.3-8.6-9.8-12.9-14.3c-3.9-4.1-3.8-10.5,0.2-14.5c0.1-0.1,0.2-0.2,0.3-0.3c0,0,4.3,4,9.6,9.3c2.3,2.3,4.8,4.8,7.2,7.3
				c3.1,3.3,6.2,6.7,8.4,9.5C99.6,267.1,100.8,268.6,100.7,270.4z"/>
			<path id="Path_37326" class="st13" d="M280.2,304.2c4.9,0.9,10,0.9,14.9-0.2c0.5-0.1,0.1,7.7-0.1,8.4c-0.6,2.5-1.9,5.4-3.9,7
				c-5,4-8.9-1.4-10.1-5.9c-0.4-1.5-0.8-3.1-1.1-4.7C279.5,307.3,279.3,305.4,280.2,304.2z"/>
			<path id="Path_37328" class="st1" d="M285.5,245.8c6.1-0.4,13-1.6,26.3,9.6c5,4.3,8.7,9.8,12.3,15.3
				c12.3,18.4,23.4,37.5,33.2,57.3c4.5,8.9,8.9,18.3,16.7,24.6c-6.5,9-14.1,17.1-22.7,24.1c-0.9,0.9-2.2,1.5-3.5,1.7
				c-1.7,0-3-1.5-4-2.8l-25.4-32.4c-3.5-4.5-7.1-9-9.2-14.3c-4.5-11.3-1.7-24-1.7-36.2C307.5,276,295.5,259.9,285.5,245.8z"/>
			<path id="Path_37329" class="st11" d="M309.8,325.4l-1.4-11.5c6.2,14.7,14,28.6,23.3,41.6c-0.9-1.2-9.1,5-10.7,4.7
				c-3.1-0.6-4.6-5.6-5.6-8.2C312,343.5,310.9,334.4,309.8,325.4z"/>
			<path id="Path_37330" class="st14" d="M377.1,361.5c-8.1,12.5-16.3,25.1-24.5,37.6l-5.4,0h0c-1.6,0.1-3.2,0.2-4.8,0.3
				c0.1-0.1,0.1-0.2,0.2-0.3c-14,0.1-28,0.2-41.9,0.3c0.1-3.5,0.4-7,1.1-10.5c2.7-14.8,10.5-28,22.4-35.9c0.6-0.4,1.2-0.8,1.9-1.2
				c11-6.5,24.3-8,36.5-4.4c3.4,1,6.6,2.5,9.6,4.4c1.5,1,3,2.1,4.4,3.3c0.8,0.6,1.4,1.4,1.8,2.4
				C378.6,359.1,377.8,360.4,377.1,361.5z"/>
			<path id="Path_37331" class="st15" d="M377.4,361.5c-8.2,12.5-16.3,25.1-24.5,37.6l-5.4,0h0c-1.6,0.1-3.2,0.2-4.8,0.3
				c0.1-0.1,0.1-0.2,0.2-0.3c-14,0.1-28,0.2-41.9,0.3c0.1-3.5,0.4-7,1.1-10.5l3.9,0c21.4,0.1,41-11.6,51-30.5l5.9-11
				c3.4,1,6.6,2.5,9.6,4.4c1.5,1,3,2.1,4.4,3.3c0.8,0.6,1.4,1.4,1.8,2.4C378.9,359.1,378.1,360.4,377.4,361.5z"/>
			<path id="Path_37333" class="st16" d="M441,398.5c0,0-10.8,0.1-25.4,0.2c-1.4,0-2.8,0-4.3,0l-24.2,0.2c-7.5,0-15,0.1-21.8,0.2
				c-2,0-3.9,0-5.7,0c-2.5,0-4.8,0-7,0.1l-5.4,0h0c-1.6,0.1-3.2,0.2-4.8,0.3c0.1-0.1,0.1-0.2,0.2-0.3c0.9-1.4,2.7-4.1,2.7-4.1
				l42.6-70c0.6-1,1.8-1.5,2.9-1.4c0.1,0,0.1,0,0.2,0l0,0c0.7,0.2,1.4,0.6,1.8,1.2l47.9,73.1L441,398.5z"/>
			<g id="Group_14428">
				<path id="Path_37351" class="st17" d="M60.8,235.7c-0.4-1.1-1.5-3.2-2.6-6.4c-3.1-8.9-4.6-18.4-4.2-27.8
					c0.1-2.9,0.4-5.9,0.9-8.8c0.1-0.7,0.3-1.5,0.4-2.2c0.1-0.4,0.1-0.7,0.2-1.1l0.3-1.1l0.5-2.2c0.2-0.7,0.4-1.5,0.6-2.2
					c1.7-5.9,4.3-11.6,7.6-16.8c5.6-8.9,13.1-16.4,22-22c16.9-8.4,28.7-8.7,32.9-9.5l5.7-1.1l4.5-1.1c1.5-0.4,3-0.8,4.5-1.2
					c3-0.8,5.9-1.7,8.8-2.5l4.4-1.4l2.2-0.7l2.2-0.8l4.3-1.5l4.3-1.7c0.7-0.3,1.4-0.5,2.1-0.9l2.1-0.9c1.4-0.6,2.8-1.2,4.2-1.9
					c2.7-1.3,5.5-2.6,8.2-4.1l2-1.1l1-0.5c0.3-0.2,0.7-0.4,1-0.6l3.9-2.3l1-0.6l1-0.6l1.9-1.3l1.9-1.3c0.3-0.2,0.6-0.4,0.9-0.6
					l0.9-0.7l3.7-2.7c1.2-0.9,2.4-1.9,3.6-2.9c2.4-2,4.7-4,6.9-6.1c4.5-4.2,8.9-8.6,13.3-13c8.8-8.8,17.6-17.7,26.8-26.1
					c-5.7,6.5-11.2,13.1-16.6,19.7l-8.1,10c-2.7,3.3-5.4,6.7-8.2,10s-5.7,6.6-8.8,9.7c-0.8,0.8-1.5,1.6-2.3,2.4l-1.2,1.2l-1.2,1.1
					l-2.5,2.2c-0.8,0.7-1.6,1.5-2.5,2.2c-6.8,5.8-14.1,11-21.8,15.5c-1.5,0.7-3,1.4-4.4,2.1l-2.2,1c-0.7,0.3-1.5,0.6-2.2,0.9
					l-4.5,1.9l-4.5,1.7c-0.8,0.3-1.5,0.6-2.3,0.8l-2.3,0.8c-1.5,0.5-3.1,1.1-4.6,1.5c-3.1,0.9-6.1,1.9-9.2,2.8
					c-12.3,3.5-44.8,8.7-60.5,29.6c-2.1,2-4,4.2-5.7,6.5c-3.7,4.9-6.6,10.4-8.6,16.2c-0.6,1.5-1,3-1.4,4.6c-0.2,0.8-0.4,1.6-0.6,2.4
					c-0.1,0.4-0.2,0.8-0.3,1.2l-0.2,1.2c-0.6,3.3-1,6.6-1.2,10l-0.1,2.6c0,0.9,0,1.7,0,2.6c0,0.4,0,0.9,0,1.3l0.1,1.3
					c0.1,0.9,0.1,1.8,0.2,2.6C59.2,228.6,59.8,232.2,60.8,235.7z"/>
				<path id="Path_37352" class="st17" d="M166.3,139.6l1.9-0.9l1.9-1l3.7-2c0.6-0.3,1.2-0.7,1.8-1l1.8-1.1c1.2-0.7,2.4-1.4,3.6-2.2
					l3.6-2.3c1.2-0.8,2.4-1.5,3.5-2.4c2.3-1.7,4.6-3.2,6.8-5l3.3-2.6c1.1-0.9,2.1-1.9,3.2-2.8c1.1-0.9,2.1-1.9,3.2-2.8s2-1.9,3-2.9
					c4-3.9,7.7-8,11.2-12.1s7.3-7.9,10.3-12.2c55-77.7,112-68,120.7-66.3c8.9,1.7,17.4,4.8,25.3,9.3
					c60.1,35.7,57.9,109.2,13.9,191.3c-10.4,19.4-20.9,37.7-15.6,60.7c1.6,6.3,3.8,12.5,6.8,18.3c3,5.8,6.5,11.3,10.6,16.4l-1.5-1.5
					c-0.9-1-2.3-2.5-4-4.6c-2-2.5-3.9-5-5.7-7.6c-2.3-3.5-4.4-7.1-6.2-10.9c-1-2.1-2-4.3-2.9-6.7s-1.7-4.9-2.4-7.5
					c-1.5-5.6-2.3-11.5-2.4-17.3c0-3.2,0.2-6.4,0.7-9.5c0.1-0.8,0.3-1.6,0.4-2.4l0.5-2.4c0.4-1.6,0.9-3.2,1.4-4.8
					c2.2-6.2,4.9-12.2,8-17.9c1.5-2.8,13-28.4,14.9-34.1c30.2-89.6,2.2-143.8-46.5-157.9c-2.5-0.6-44.6-16.3-102.7,46.7
					c-3.6,3.8-7.2,7.6-10.7,11.5c-3.6,3.8-7.2,7.7-10.9,11.7s-7.7,7.8-11.9,11.6c-1,0.9-2.1,1.9-3.2,2.8c-1.1,0.9-2.2,1.8-3.3,2.7
					s-2.2,1.8-3.4,2.7l-3.5,2.5c-2.3,1.7-4.7,3.2-7.1,4.8c-1.2,0.8-2.4,1.5-3.6,2.2l-3.7,2.2c-1.2,0.7-2.5,1.3-3.7,2l-1.9,1
					c-0.6,0.3-1.2,0.7-1.9,1l-3.8,1.8l-1.9,0.9L166.3,139.6z"/>
			</g>
			<path id="Path_37353" class="st10" d="M267,226.4c0.3-0.6,3.9-5.1,4.8-6.9c0.4-0.8,0.9-1.5,1.5-2.1c0.5-0.5,1.2-0.7,1.9-0.6
				c1.2,0.3,0.8,2.2,1.3,3c0.8,1.2,1,2.7,0.3,4.1c-0.7,1.3-1.8,2.4-3.2,3.1c-1.5,0.9-3.3,1.6-4.9,1.1
				C268.3,227.9,266.6,227.3,267,226.4z"/>
			<path id="Path_37354" class="st4" d="M244.7,226.3c-1.4,0-2.8-0.7-3.6-1.8c-0.7-1-1.1-2.2-1-3.5c0-0.4,0.3-0.6,0.7-0.6
				c0.3,0,0.6,0.3,0.6,0.7l0,0c-0.1,0.9,0.2,1.9,0.7,2.7c0.6,0.8,1.6,1.3,2.6,1.3h0.1c1,0,2-0.5,2.6-1.4c0.2-0.3,0.6-0.4,0.9-0.2
				l0,0c0.3,0.2,0.4,0.6,0.2,0.9l0,0C247.6,225.6,246.2,226.3,244.7,226.3L244.7,226.3z"/>
			<path id="Path_37355" class="st12" d="M270.3,225.4c0.2,0.2,0.5,0.4,0.8,0.4c2,0.5,3.1-1.2,4.3-2.6c1.6-1.9-1.3-2.2-2.6-1.5
				c-0.6,0.5-1.2,1.1-1.7,1.8C270.7,224.2,269.9,224.9,270.3,225.4z"/>
			<path id="Path_37356" class="st4" d="M251.9,177.9c-2.9,1.1-6.6,2.7-8.5,4.5c-2.3,2.1-8.3,9.8-10.4,20.4
				c-0.3,1.3,0.1,1.4,1.4,1.1c2-0.6,3.8-1.8,5.1-3.5c1.7-2,3-4.3,4.8-6.1c0.7-0.8,1.6-1.3,2.5-1.6c1.3,9.9,7.8,24.9,19.3,26.1
				c1.4,0.1,2.8-0.2,4.1,0c1.3,0.3,2.4,1,3.1,2.1l2.7,3c0.6,0.8,1.4,1.4,2.2,1.9c2.2,1.2,3.8-0.1,4-2.3c0.3-3.2-1.3-6.2-1.2-9.4
				c0.4-8.1-1-16.5-5-23.6c-1.6-2.6-3.5-5-5.8-7c-2.3-2.2-5.4-5.1-8.5-6.2S255.2,176.7,251.9,177.9z"/>
			<path id="Path_37357" class="st18" d="M441,398.5c0,0-10.8,0.1-25.4,0.2l-24.8-75c0.1,0,0.1,0,0.2,0l0,0c0.7,0.2,1.4,0.6,1.8,1.2
				l47.9,73.1L441,398.5z"/>
			<path id="Path_37358" class="st17" d="M391.1,323.8L391.1,323.8l-3.9,75.1c-7.5,0-15,0.1-21.8,0.2c-2,0-20.9,0.2-22.8,0.2
				l45.4-74.1c0.6-1,1.8-1.5,2.9-1.4L391.1,323.8z"/>
			<g id="Group_14429">
				<path id="Path_37361" class="st2" d="M1.1,399.9c-0.2-0.3,0.5-0.5,4.3-0.5c10-0.1,19.9,0.1,29.9,0.1h0h0.6h0
					c6.5,0,13.1-0.2,19.5-0.2c11.4,0,22.8-0.2,34.3-0.1c12.8,0.1,25.8-0.1,38.7-0.1c15.5,0,30.9-0.1,46.4-0.3l39.3-0.4
					c9.1-0.1,18.2,0,27.3,0l10-0.1c4,0,7.7-0.1,11.9,0.1c3.5,0.2,8.8,0,13.3,0c6.3,0,12.5,0,18.8,0c6.4-0.1,12.9,0,19.2-0.2h0
					c3.7,0,7.5,0,11.1,0c8.3-0.1,16.4,0,24.5,0c22.9,0.1,45.7,0,68.5-0.2c8.8-0.1,17.5-0.2,26.2-0.3l0,0c4.9,0,9.7,0.3,14.5,0.9
					c4.1,0.5,2.4,0.9-3.7,1c-11.5,0.2-23,0.4-34.7,0.4c-10.5,0-21.1,0-31.6,0l-16.3,0h0c-0.2,0-0.4,0-0.6,0h0
					c-7.5-0.1-15.1,0-22.7,0c-4.1,0-8.1,0-12.2-0.1c-2.8-0.1-6.7,0.1-10.1,0.1l-31.6,0.1l-7.4,0v0c-3-0.1-6,0-9,0h-5.5
					c-2.3,0-4.6,0-6.8,0.1c-4.8,0.1-9.5,0.1-14.2,0c-0.5,0-1.1,0-1.7,0.1h0l-2.9,0.1c-0.1,0-0.1,0-0.2,0c0,0-0.1,0-0.1,0
					c-4.1-0.1-8.2,0.1-12.3,0.1l-1.8-0.1l0,0l0,0c0,0-0.1,0-0.1,0c0,0-0.1,0-0.1,0c-5.5,0-10.9,0.2-16.4,0.1h0l-9.7,0h0
					c-0.5-0.1-1.1-0.1-1.6,0h0l-1.4,0.1l-0.4,0.1c-2.2,0-4.4,0-6.5-0.1l0,0c-0.5,0.1-1,0.1-1.5,0l0.1,0l-0.1,0l-7.7,0.1h0
					c-1.6,0.1-3.2,0.1-4.7-0.1c-1.2-0.1-2.9,0.2-4.6,0.1h0c-0.2,0-0.3,0-0.5,0h0l-21.7,0.2h0c-9.1-0.3-18.4,0-27.7,0l-30.3,0.3
					l-12,0.1l0,0c-0.5,0.1-1.1,0.1-1.6,0l0.1,0h-0.1c-3.3,0-7.1,0-9.7,0.1c-4.6,0.1-9.2,0.1-13.7,0.2L33.3,402c-3,0-6.1,0.1-9,0.2
					c-2.6,0.1-3.4,0-3.9-0.3c-0.8-0.4-2.3-0.7-7.4-0.6c-2.8,0.1-8,0.1-6.2-0.6c0.4-0.2-1-0.1-1.8-0.1
					C-0.3,400.7,1.3,400.2,1.1,399.9z M247.1,400.4l0.9,0.1c-0.1,0-0.3-0.1-0.4-0.1C247.6,400.4,247.3,400.4,247.1,400.4
					L247.1,400.4z M217.6,400.6l-0.3,0.1l0.5,0L217.6,400.6z M203.5,400.8l1,0L203.5,400.8L203.5,400.8z M187.1,400.8l1.4,0
					l-1.1-0.1L187.1,400.8z M86.8,401.5l0.2,0l0,0C86.9,401.4,86.9,401.4,86.8,401.5L86.8,401.5z"/>
			</g>
			<path id="Path_3087" class="st4" d="M264.6,169.2c0.3,1.3,3.6,0.7,8.6,3.1c3.3,1.7,6.2,4.1,8.5,7c2.5,0,4.8-1.1,6.5-2.9
				c3-4.1,0.1-11.7-4.6-14.5C273.7,155.3,264,166.5,264.6,169.2z"/>
			<path id="Path_3133" class="st4" d="M265.4,169.9c-0.2,0-0.4-0.1-0.6-0.3c-0.8-1.4-1-3.1-0.6-4.7c0.4-1.5,1.2-2.8,2.3-3.9
				c3.8-4,9.4-5.8,14.8-4.6c2.2,0.6,4.3,1.6,6.2,2.8c0.3,0.2,0.4,0.7,0.2,1c-0.2,0.3-0.6,0.4-0.9,0.2l0,0c-1.8-1.2-3.7-2.1-5.8-2.7
				c-4.9-1-9.9,0.6-13.4,4.2c-0.9,0.9-1.6,2.1-2,3.3c-0.4,1.2-0.2,2.4,0.4,3.5c0.2,0.3,0.1,0.8-0.2,1
				C265.7,169.8,265.6,169.9,265.4,169.9L265.4,169.9z"/>
			<path class="st2" d="M6.9,388.6c-0.3,1-1.3,1.6-2.4,1.4c-1.1-0.2-1.8-1.2-1.7-2.3c0.1-1.1,1-2,2.2-2c1.2,0,2.1,0.9,2.2,2
				c0,0.2,0.5,0.3,0.5,0c-0.1-1.5-1.2-2.7-2.7-2.9c-0.8-0.1-1.6,0.1-2.3,0.6c-0.7,0.5-1.2,1.3-1.4,2.1c-0.2,0.9,0,1.9,0.5,2.7
				c0.5,0.9,1.4,1.5,2.3,1.7c1,0.2,2.1,0.1,2.9-0.4c0.9-0.5,1.5-1.4,1.7-2.4c0.2-0.5-0.1-1-0.6-1.2c-0.1,0-0.2-0.1-0.3,0
				C7.5,388,7.1,388.2,6.9,388.6z"/>
			<rect class="st5" width="492" height="480"/>
		</g>
	</g>
</g>
</svg>
